ISO-10303-21;
HEADER;
/* Generated by software containing ST-Developer
 * from STEP Tools, Inc. (www.steptools.com) 
 */
/* OPTION: using custom renumber hook */

FILE_DESCRIPTION(
/* description */ ('STEP AP242 Edition 2',
'CAx-IF Rec.Pracs.---Representation and Presentation of Product Manufa
cturing Information (PMI)---4.0---2014-10-13',
'CAx-IF Rec.Pracs.---3D Tessellated Geometry---0.4---2014-09-14','2;1',
'CAx-IF Rec.Pracs.---User Defined Attributes---1.5---2016-08-15'),
/* implementation_level */ '2;1');

FILE_NAME(
/* name */ 'Part Studio 1 - Back Plate',
/* time_stamp */ '2026-08-22T09:10:01Z',
/* author */ (''),
/* organization */ (''),
/* preprocessor_version */ 'ST-DEVELOPER v20',
/* originating_system */ 'ONSHAPE BY PTC INC, 1.219',
/* authorisation */ '  ');

FILE_SCHEMA (('AP242_MANAGED_MODEL_BASED_3D_ENGINEERING_MIM_LF { 1 0 10303 442 3 1 4 }'));
ENDSEC;

DATA;
#10=SHAPE_REPRESENTATION_RELATIONSHIP('','',#561,#11);
#11=ADVANCED_BREP_SHAPE_REPRESENTATION('',(#559),#897);
#12=CYLINDRICAL_SURFACE('',#596,0.0013);
#13=CYLINDRICAL_SURFACE('',#597,0.0013);
#14=CYLINDRICAL_SURFACE('',#598,0.0013);
#15=CYLINDRICAL_SURFACE('',#599,0.0013);
#16=CYLINDRICAL_SURFACE('',#600,0.0016);
#17=CYLINDRICAL_SURFACE('',#602,0.0016);
#18=ELLIPSE('',#581,0.00162207000807953,0.0016);
#19=ELLIPSE('',#582,0.00162207000807953,0.0016);
#20=CIRCLE('',#565,0.0013);
#21=CIRCLE('',#566,0.0013);
#22=CIRCLE('',#567,0.0013);
#23=CIRCLE('',#568,0.0013);
#24=CIRCLE('',#571,0.0013);
#25=CIRCLE('',#572,0.0013);
#26=CIRCLE('',#573,0.0013);
#27=CIRCLE('',#574,0.0013);
#28=CIRCLE('',#593,0.0016);
#29=CIRCLE('',#594,0.0016);
#30=ORIENTED_EDGE('',*,*,#174,.F.);
#31=ORIENTED_EDGE('',*,*,#175,.T.);
#32=ORIENTED_EDGE('',*,*,#176,.T.);
#33=ORIENTED_EDGE('',*,*,#177,.F.);
#34=ORIENTED_EDGE('',*,*,#178,.T.);
#35=ORIENTED_EDGE('',*,*,#179,.T.);
#36=ORIENTED_EDGE('',*,*,#180,.T.);
#37=ORIENTED_EDGE('',*,*,#181,.T.);
#38=ORIENTED_EDGE('',*,*,#182,.F.);
#39=ORIENTED_EDGE('',*,*,#183,.T.);
#40=ORIENTED_EDGE('',*,*,#177,.T.);
#41=ORIENTED_EDGE('',*,*,#184,.F.);
#42=ORIENTED_EDGE('',*,*,#185,.F.);
#43=ORIENTED_EDGE('',*,*,#186,.T.);
#44=ORIENTED_EDGE('',*,*,#187,.F.);
#45=ORIENTED_EDGE('',*,*,#188,.F.);
#46=ORIENTED_EDGE('',*,*,#189,.F.);
#47=ORIENTED_EDGE('',*,*,#190,.F.);
#48=ORIENTED_EDGE('',*,*,#191,.F.);
#49=ORIENTED_EDGE('',*,*,#192,.T.);
#50=ORIENTED_EDGE('',*,*,#193,.T.);
#51=ORIENTED_EDGE('',*,*,#185,.T.);
#52=ORIENTED_EDGE('',*,*,#194,.T.);
#53=ORIENTED_EDGE('',*,*,#195,.T.);
#54=ORIENTED_EDGE('',*,*,#196,.T.);
#55=ORIENTED_EDGE('',*,*,#197,.T.);
#56=ORIENTED_EDGE('',*,*,#175,.F.);
#57=ORIENTED_EDGE('',*,*,#198,.T.);
#58=ORIENTED_EDGE('',*,*,#199,.T.);
#59=ORIENTED_EDGE('',*,*,#200,.F.);
#60=ORIENTED_EDGE('',*,*,#190,.T.);
#61=ORIENTED_EDGE('',*,*,#201,.T.);
#62=ORIENTED_EDGE('',*,*,#202,.F.);
#63=ORIENTED_EDGE('',*,*,#203,.T.);
#64=ORIENTED_EDGE('',*,*,#204,.F.);
#65=ORIENTED_EDGE('',*,*,#205,.T.);
#66=ORIENTED_EDGE('',*,*,#206,.F.);
#67=ORIENTED_EDGE('',*,*,#207,.F.);
#68=ORIENTED_EDGE('',*,*,#208,.T.);
#69=ORIENTED_EDGE('',*,*,#209,.T.);
#70=ORIENTED_EDGE('',*,*,#210,.T.);
#71=ORIENTED_EDGE('',*,*,#206,.T.);
#72=ORIENTED_EDGE('',*,*,#211,.T.);
#73=ORIENTED_EDGE('',*,*,#212,.T.);
#74=ORIENTED_EDGE('',*,*,#213,.F.);
#75=ORIENTED_EDGE('',*,*,#214,.T.);
#76=ORIENTED_EDGE('',*,*,#215,.F.);
#77=ORIENTED_EDGE('',*,*,#209,.F.);
#78=ORIENTED_EDGE('',*,*,#216,.F.);
#79=ORIENTED_EDGE('',*,*,#217,.T.);
#80=ORIENTED_EDGE('',*,*,#218,.F.);
#81=ORIENTED_EDGE('',*,*,#219,.F.);
#82=ORIENTED_EDGE('',*,*,#220,.F.);
#83=ORIENTED_EDGE('',*,*,#221,.F.);
#84=ORIENTED_EDGE('',*,*,#222,.T.);
#85=ORIENTED_EDGE('',*,*,#207,.T.);
#86=ORIENTED_EDGE('',*,*,#210,.F.);
#87=ORIENTED_EDGE('',*,*,#215,.T.);
#88=ORIENTED_EDGE('',*,*,#205,.F.);
#89=ORIENTED_EDGE('',*,*,#223,.F.);
#90=ORIENTED_EDGE('',*,*,#221,.T.);
#91=ORIENTED_EDGE('',*,*,#224,.F.);
#92=ORIENTED_EDGE('',*,*,#225,.F.);
#93=ORIENTED_EDGE('',*,*,#226,.F.);
#94=ORIENTED_EDGE('',*,*,#227,.F.);
#95=ORIENTED_EDGE('',*,*,#216,.T.);
#96=ORIENTED_EDGE('',*,*,#214,.F.);
#97=ORIENTED_EDGE('',*,*,#213,.T.);
#98=ORIENTED_EDGE('',*,*,#228,.F.);
#99=ORIENTED_EDGE('',*,*,#202,.T.);
#100=ORIENTED_EDGE('',*,*,#224,.T.);
#101=ORIENTED_EDGE('',*,*,#220,.T.);
#102=ORIENTED_EDGE('',*,*,#223,.T.);
#103=ORIENTED_EDGE('',*,*,#204,.T.);
#104=ORIENTED_EDGE('',*,*,#229,.T.);
#105=ORIENTED_EDGE('',*,*,#211,.F.);
#106=ORIENTED_EDGE('',*,*,#208,.F.);
#107=ORIENTED_EDGE('',*,*,#222,.F.);
#108=ORIENTED_EDGE('',*,*,#203,.F.);
#109=ORIENTED_EDGE('',*,*,#228,.T.);
#110=ORIENTED_EDGE('',*,*,#212,.F.);
#111=ORIENTED_EDGE('',*,*,#229,.F.);
#112=ORIENTED_EDGE('',*,*,#230,.F.);
#113=ORIENTED_EDGE('',*,*,#231,.T.);
#114=ORIENTED_EDGE('',*,*,#187,.T.);
#115=ORIENTED_EDGE('',*,*,#232,.F.);
#116=ORIENTED_EDGE('',*,*,#233,.F.);
#117=ORIENTED_EDGE('',*,*,#234,.T.);
#118=ORIENTED_EDGE('',*,*,#230,.T.);
#119=ORIENTED_EDGE('',*,*,#235,.F.);
#120=ORIENTED_EDGE('',*,*,#235,.T.);
#121=ORIENTED_EDGE('',*,*,#232,.T.);
#122=ORIENTED_EDGE('',*,*,#186,.F.);
#123=ORIENTED_EDGE('',*,*,#193,.F.);
#124=ORIENTED_EDGE('',*,*,#231,.F.);
#125=ORIENTED_EDGE('',*,*,#234,.F.);
#126=ORIENTED_EDGE('',*,*,#236,.T.);
#127=ORIENTED_EDGE('',*,*,#188,.T.);
#128=ORIENTED_EDGE('',*,*,#237,.F.);
#129=ORIENTED_EDGE('',*,*,#238,.F.);
#130=ORIENTED_EDGE('',*,*,#233,.T.);
#131=ORIENTED_EDGE('',*,*,#192,.F.);
#132=ORIENTED_EDGE('',*,*,#191,.T.);
#133=ORIENTED_EDGE('',*,*,#200,.T.);
#134=ORIENTED_EDGE('',*,*,#239,.T.);
#135=ORIENTED_EDGE('',*,*,#237,.T.);
#136=ORIENTED_EDGE('',*,*,#199,.F.);
#137=ORIENTED_EDGE('',*,*,#240,.T.);
#138=ORIENTED_EDGE('',*,*,#182,.T.);
#139=ORIENTED_EDGE('',*,*,#236,.F.);
#140=ORIENTED_EDGE('',*,*,#238,.T.);
#141=ORIENTED_EDGE('',*,*,#239,.F.);
#142=ORIENTED_EDGE('',*,*,#241,.F.);
#143=ORIENTED_EDGE('',*,*,#218,.T.);
#144=ORIENTED_EDGE('',*,*,#242,.F.);
#145=ORIENTED_EDGE('',*,*,#243,.F.);
#146=ORIENTED_EDGE('',*,*,#189,.T.);
#147=ORIENTED_EDGE('',*,*,#184,.T.);
#148=ORIENTED_EDGE('',*,*,#176,.F.);
#149=ORIENTED_EDGE('',*,*,#201,.F.);
#150=ORIENTED_EDGE('',*,*,#198,.F.);
#151=ORIENTED_EDGE('',*,*,#174,.T.);
#152=ORIENTED_EDGE('',*,*,#183,.F.);
#153=ORIENTED_EDGE('',*,*,#240,.F.);
#154=ORIENTED_EDGE('',*,*,#181,.F.);
#155=ORIENTED_EDGE('',*,*,#197,.F.);
#156=ORIENTED_EDGE('',*,*,#180,.F.);
#157=ORIENTED_EDGE('',*,*,#196,.F.);
#158=ORIENTED_EDGE('',*,*,#179,.F.);
#159=ORIENTED_EDGE('',*,*,#195,.F.);
#160=ORIENTED_EDGE('',*,*,#178,.F.);
#161=ORIENTED_EDGE('',*,*,#194,.F.);
#162=ORIENTED_EDGE('',*,*,#225,.T.);
#163=ORIENTED_EDGE('',*,*,#219,.T.);
#164=ORIENTED_EDGE('',*,*,#241,.T.);
#165=ORIENTED_EDGE('',*,*,#244,.F.);
#166=ORIENTED_EDGE('',*,*,#226,.T.);
#167=ORIENTED_EDGE('',*,*,#244,.T.);
#168=ORIENTED_EDGE('',*,*,#243,.T.);
#169=ORIENTED_EDGE('',*,*,#245,.F.);
#170=ORIENTED_EDGE('',*,*,#227,.T.);
#171=ORIENTED_EDGE('',*,*,#245,.T.);
#172=ORIENTED_EDGE('',*,*,#242,.T.);
#173=ORIENTED_EDGE('',*,*,#217,.F.);
#174=EDGE_CURVE('',#246,#247,#296,.T.);
#175=EDGE_CURVE('',#246,#248,#297,.T.);
#176=EDGE_CURVE('',#248,#249,#298,.T.);
#177=EDGE_CURVE('',#247,#249,#299,.T.);
#178=EDGE_CURVE('',#250,#250,#20,.F.);
#179=EDGE_CURVE('',#251,#251,#21,.F.);
#180=EDGE_CURVE('',#252,#252,#22,.F.);
#181=EDGE_CURVE('',#253,#253,#23,.F.);
#182=EDGE_CURVE('',#254,#255,#300,.T.);
#183=EDGE_CURVE('',#254,#247,#301,.T.);
#184=EDGE_CURVE('',#256,#249,#302,.T.);
#185=EDGE_CURVE('',#257,#256,#303,.T.);
#186=EDGE_CURVE('',#257,#258,#304,.T.);
#187=EDGE_CURVE('',#259,#258,#305,.T.);
#188=EDGE_CURVE('',#255,#259,#306,.T.);
#189=EDGE_CURVE('',#260,#256,#307,.T.);
#190=EDGE_CURVE('',#261,#260,#308,.T.);
#191=EDGE_CURVE('',#262,#261,#309,.T.);
#192=EDGE_CURVE('',#262,#263,#310,.T.);
#193=EDGE_CURVE('',#263,#257,#311,.T.);
#194=EDGE_CURVE('',#264,#264,#24,.T.);
#195=EDGE_CURVE('',#265,#265,#25,.T.);
#196=EDGE_CURVE('',#266,#266,#26,.T.);
#197=EDGE_CURVE('',#267,#267,#27,.T.);
#198=EDGE_CURVE('',#246,#268,#312,.T.);
#199=EDGE_CURVE('',#268,#269,#313,.T.);
#200=EDGE_CURVE('',#261,#269,#314,.T.);
#201=EDGE_CURVE('',#260,#248,#315,.T.);
#202=EDGE_CURVE('',#270,#271,#316,.T.);
#203=EDGE_CURVE('',#270,#272,#317,.T.);
#204=EDGE_CURVE('',#273,#272,#318,.T.);
#205=EDGE_CURVE('',#273,#271,#319,.T.);
#206=EDGE_CURVE('',#274,#275,#320,.T.);
#207=EDGE_CURVE('',#276,#274,#321,.T.);
#208=EDGE_CURVE('',#276,#275,#322,.T.);
#209=EDGE_CURVE('',#277,#278,#323,.T.);
#210=EDGE_CURVE('',#278,#274,#324,.T.);
#211=EDGE_CURVE('',#275,#279,#325,.T.);
#212=EDGE_CURVE('',#279,#280,#326,.T.);
#213=EDGE_CURVE('',#277,#280,#327,.T.);
#214=EDGE_CURVE('',#277,#281,#328,.T.);
#215=EDGE_CURVE('',#278,#281,#329,.T.);
#216=EDGE_CURVE('',#282,#281,#330,.T.);
#217=EDGE_CURVE('',#282,#283,#331,.T.);
#218=EDGE_CURVE('',#284,#283,#332,.T.);
#219=EDGE_CURVE('',#285,#284,#333,.T.);
#220=EDGE_CURVE('',#286,#285,#334,.T.);
#221=EDGE_CURVE('',#287,#286,#335,.T.);
#222=EDGE_CURVE('',#287,#276,#336,.T.);
#223=EDGE_CURVE('',#287,#273,#337,.T.);
#224=EDGE_CURVE('',#271,#286,#338,.T.);
#225=EDGE_CURVE('',#288,#285,#18,.T.);
#226=EDGE_CURVE('',#289,#288,#339,.T.);
#227=EDGE_CURVE('',#282,#289,#19,.T.);
#228=EDGE_CURVE('',#270,#280,#340,.T.);
#229=EDGE_CURVE('',#272,#279,#341,.T.);
#230=EDGE_CURVE('',#290,#291,#342,.T.);
#231=EDGE_CURVE('',#290,#259,#343,.T.);
#232=EDGE_CURVE('',#291,#258,#344,.T.);
#233=EDGE_CURVE('',#292,#263,#345,.T.);
#234=EDGE_CURVE('',#292,#290,#346,.T.);
#235=EDGE_CURVE('',#263,#291,#347,.T.);
#236=EDGE_CURVE('',#292,#255,#348,.T.);
#237=EDGE_CURVE('',#293,#262,#349,.T.);
#238=EDGE_CURVE('',#292,#293,#350,.T.);
#239=EDGE_CURVE('',#269,#293,#351,.T.);
#240=EDGE_CURVE('',#268,#254,#352,.T.);
#241=EDGE_CURVE('',#284,#294,#28,.T.);
#242=EDGE_CURVE('',#295,#283,#29,.T.);
#243=EDGE_CURVE('',#294,#295,#353,.T.);
#244=EDGE_CURVE('',#288,#294,#354,.T.);
#245=EDGE_CURVE('',#289,#295,#355,.T.);
#246=VERTEX_POINT('',#748);
#247=VERTEX_POINT('',#749);
#248=VERTEX_POINT('',#751);
#249=VERTEX_POINT('',#753);
#250=VERTEX_POINT('',#757);
#251=VERTEX_POINT('',#759);
#252=VERTEX_POINT('',#761);
#253=VERTEX_POINT('',#763);
#254=VERTEX_POINT('',#765);
#255=VERTEX_POINT('',#766);
#256=VERTEX_POINT('',#769);
#257=VERTEX_POINT('',#771);
#258=VERTEX_POINT('',#773);
#259=VERTEX_POINT('',#775);
#260=VERTEX_POINT('',#779);
#261=VERTEX_POINT('',#781);
#262=VERTEX_POINT('',#783);
#263=VERTEX_POINT('',#785);
#264=VERTEX_POINT('',#789);
#265=VERTEX_POINT('',#791);
#266=VERTEX_POINT('',#793);
#267=VERTEX_POINT('',#795);
#268=VERTEX_POINT('',#797);
#269=VERTEX_POINT('',#799);
#270=VERTEX_POINT('',#803);
#271=VERTEX_POINT('',#804);
#272=VERTEX_POINT('',#806);
#273=VERTEX_POINT('',#808);
#274=VERTEX_POINT('',#812);
#275=VERTEX_POINT('',#813);
#276=VERTEX_POINT('',#815);
#277=VERTEX_POINT('',#819);
#278=VERTEX_POINT('',#820);
#279=VERTEX_POINT('',#823);
#280=VERTEX_POINT('',#825);
#281=VERTEX_POINT('',#829);
#282=VERTEX_POINT('',#833);
#283=VERTEX_POINT('',#835);
#284=VERTEX_POINT('',#837);
#285=VERTEX_POINT('',#839);
#286=VERTEX_POINT('',#841);
#287=VERTEX_POINT('',#843);
#288=VERTEX_POINT('',#850);
#289=VERTEX_POINT('',#852);
#290=VERTEX_POINT('',#860);
#291=VERTEX_POINT('',#861);
#292=VERTEX_POINT('',#866);
#293=VERTEX_POINT('',#874);
#294=VERTEX_POINT('',#882);
#295=VERTEX_POINT('',#884);
#296=LINE('',#747,#356);
#297=LINE('',#750,#357);
#298=LINE('',#752,#358);
#299=LINE('',#754,#359);
#300=LINE('',#764,#360);
#301=LINE('',#767,#361);
#302=LINE('',#768,#362);
#303=LINE('',#770,#363);
#304=LINE('',#772,#364);
#305=LINE('',#774,#365);
#306=LINE('',#776,#366);
#307=LINE('',#778,#367);
#308=LINE('',#780,#368);
#309=LINE('',#782,#369);
#310=LINE('',#784,#370);
#311=LINE('',#786,#371);
#312=LINE('',#796,#372);
#313=LINE('',#798,#373);
#314=LINE('',#800,#374);
#315=LINE('',#801,#375);
#316=LINE('',#802,#376);
#317=LINE('',#805,#377);
#318=LINE('',#807,#378);
#319=LINE('',#809,#379);
#320=LINE('',#811,#380);
#321=LINE('',#814,#381);
#322=LINE('',#816,#382);
#323=LINE('',#818,#383);
#324=LINE('',#821,#384);
#325=LINE('',#822,#385);
#326=LINE('',#824,#386);
#327=LINE('',#826,#387);
#328=LINE('',#828,#388);
#329=LINE('',#830,#389);
#330=LINE('',#832,#390);
#331=LINE('',#834,#391);
#332=LINE('',#836,#392);
#333=LINE('',#838,#393);
#334=LINE('',#840,#394);
#335=LINE('',#842,#395);
#336=LINE('',#844,#396);
#337=LINE('',#846,#397);
#338=LINE('',#847,#398);
#339=LINE('',#851,#399);
#340=LINE('',#854,#400);
#341=LINE('',#856,#401);
#342=LINE('',#859,#402);
#343=LINE('',#862,#403);
#344=LINE('',#863,#404);
#345=LINE('',#865,#405);
#346=LINE('',#867,#406);
#347=LINE('',#868,#407);
#348=LINE('',#871,#408);
#349=LINE('',#873,#409);
#350=LINE('',#875,#410);
#351=LINE('',#877,#411);
#352=LINE('',#879,#412);
#353=LINE('',#885,#413);
#354=LINE('',#892,#414);
#355=LINE('',#894,#415);
#356=VECTOR('',#607,1.);
#357=VECTOR('',#608,1.);
#358=VECTOR('',#609,1.);
#359=VECTOR('',#610,1.);
#360=VECTOR('',#621,1.);
#361=VECTOR('',#622,1.);
#362=VECTOR('',#623,1.);
#363=VECTOR('',#624,1.);
#364=VECTOR('',#625,1.);
#365=VECTOR('',#626,1.);
#366=VECTOR('',#627,1.);
#367=VECTOR('',#630,1.);
#368=VECTOR('',#631,1.);
#369=VECTOR('',#632,1.);
#370=VECTOR('',#633,1.);
#371=VECTOR('',#634,1.);
#372=VECTOR('',#645,1.);
#373=VECTOR('',#646,1.);
#374=VECTOR('',#647,1.);
#375=VECTOR('',#648,1.);
#376=VECTOR('',#649,1.);
#377=VECTOR('',#650,1.);
#378=VECTOR('',#651,1.);
#379=VECTOR('',#652,1.);
#380=VECTOR('',#655,1.);
#381=VECTOR('',#656,1.);
#382=VECTOR('',#657,1.);
#383=VECTOR('',#660,1.);
#384=VECTOR('',#661,1.);
#385=VECTOR('',#662,1.);
#386=VECTOR('',#663,1.);
#387=VECTOR('',#664,1.);
#388=VECTOR('',#667,1.);
#389=VECTOR('',#668,1.);
#390=VECTOR('',#671,1.);
#391=VECTOR('',#672,1.);
#392=VECTOR('',#673,1.);
#393=VECTOR('',#674,1.);
#394=VECTOR('',#675,1.);
#395=VECTOR('',#676,1.);
#396=VECTOR('',#677,1.);
#397=VECTOR('',#680,1.);
#398=VECTOR('',#681,1.);
#399=VECTOR('',#686,1.);
#400=VECTOR('',#689,1.);
#401=VECTOR('',#692,1.);
#402=VECTOR('',#697,1.);
#403=VECTOR('',#698,1.);
#404=VECTOR('',#699,1.);
#405=VECTOR('',#702,1.);
#406=VECTOR('',#703,1.);
#407=VECTOR('',#704,1.);
#408=VECTOR('',#709,1.);
#409=VECTOR('',#712,1.);
#410=VECTOR('',#713,1.);
#411=VECTOR('',#716,1.);
#412=VECTOR('',#719,1.);
#413=VECTOR('',#726,1.);
#414=VECTOR('',#739,1.);
#415=VECTOR('',#742,1.);
#416=EDGE_LOOP('',(#30,#31,#32,#33));
#417=EDGE_LOOP('',(#34));
#418=EDGE_LOOP('',(#35));
#419=EDGE_LOOP('',(#36));
#420=EDGE_LOOP('',(#37));
#421=EDGE_LOOP('',(#38,#39,#40,#41,#42,#43,#44,#45));
#422=EDGE_LOOP('',(#46,#47,#48,#49,#50,#51));
#423=EDGE_LOOP('',(#52));
#424=EDGE_LOOP('',(#53));
#425=EDGE_LOOP('',(#54));
#426=EDGE_LOOP('',(#55));
#427=EDGE_LOOP('',(#56,#57,#58,#59,#60,#61));
#428=EDGE_LOOP('',(#62,#63,#64,#65));
#429=EDGE_LOOP('',(#66,#67,#68));
#430=EDGE_LOOP('',(#69,#70,#71,#72,#73,#74));
#431=EDGE_LOOP('',(#75,#76,#77));
#432=EDGE_LOOP('',(#78,#79,#80,#81,#82,#83,#84,#85,#86,#87));
#433=EDGE_LOOP('',(#88,#89,#90,#91));
#434=EDGE_LOOP('',(#92,#93,#94,#95,#96,#97,#98,#99,#100,#101));
#435=EDGE_LOOP('',(#102,#103,#104,#105,#106,#107));
#436=EDGE_LOOP('',(#108,#109,#110,#111));
#437=EDGE_LOOP('',(#112,#113,#114,#115));
#438=EDGE_LOOP('',(#116,#117,#118,#119));
#439=EDGE_LOOP('',(#120,#121,#122,#123));
#440=EDGE_LOOP('',(#124,#125,#126,#127));
#441=EDGE_LOOP('',(#128,#129,#130,#131));
#442=EDGE_LOOP('',(#132,#133,#134,#135));
#443=EDGE_LOOP('',(#136,#137,#138,#139,#140,#141));
#444=EDGE_LOOP('',(#142,#143,#144,#145));
#445=EDGE_LOOP('',(#146,#147,#148,#149));
#446=EDGE_LOOP('',(#150,#151,#152,#153));
#447=EDGE_LOOP('',(#154));
#448=EDGE_LOOP('',(#155));
#449=EDGE_LOOP('',(#156));
#450=EDGE_LOOP('',(#157));
#451=EDGE_LOOP('',(#158));
#452=EDGE_LOOP('',(#159));
#453=EDGE_LOOP('',(#160));
#454=EDGE_LOOP('',(#161));
#455=EDGE_LOOP('',(#162,#163,#164,#165));
#456=EDGE_LOOP('',(#166,#167,#168,#169));
#457=EDGE_LOOP('',(#170,#171,#172,#173));
#458=FACE_BOUND('',#416,.T.);
#459=FACE_BOUND('',#417,.T.);
#460=FACE_BOUND('',#418,.T.);
#461=FACE_BOUND('',#419,.T.);
#462=FACE_BOUND('',#420,.T.);
#463=FACE_BOUND('',#421,.T.);
#464=FACE_BOUND('',#422,.T.);
#465=FACE_BOUND('',#423,.T.);
#466=FACE_BOUND('',#424,.T.);
#467=FACE_BOUND('',#425,.T.);
#468=FACE_BOUND('',#426,.T.);
#469=FACE_BOUND('',#427,.T.);
#470=FACE_BOUND('',#428,.T.);
#471=FACE_BOUND('',#429,.T.);
#472=FACE_BOUND('',#430,.T.);
#473=FACE_BOUND('',#431,.T.);
#474=FACE_BOUND('',#432,.T.);
#475=FACE_BOUND('',#433,.T.);
#476=FACE_BOUND('',#434,.T.);
#477=FACE_BOUND('',#435,.T.);
#478=FACE_BOUND('',#436,.T.);
#479=FACE_BOUND('',#437,.T.);
#480=FACE_BOUND('',#438,.T.);
#481=FACE_BOUND('',#439,.T.);
#482=FACE_BOUND('',#440,.T.);
#483=FACE_BOUND('',#441,.T.);
#484=FACE_BOUND('',#442,.T.);
#485=FACE_BOUND('',#443,.T.);
#486=FACE_BOUND('',#444,.T.);
#487=FACE_BOUND('',#445,.T.);
#488=FACE_BOUND('',#446,.T.);
#489=FACE_BOUND('',#447,.T.);
#490=FACE_BOUND('',#448,.T.);
#491=FACE_BOUND('',#449,.T.);
#492=FACE_BOUND('',#450,.T.);
#493=FACE_BOUND('',#451,.T.);
#494=FACE_BOUND('',#452,.T.);
#495=FACE_BOUND('',#453,.T.);
#496=FACE_BOUND('',#454,.T.);
#497=FACE_BOUND('',#455,.T.);
#498=FACE_BOUND('',#456,.T.);
#499=FACE_BOUND('',#457,.T.);
#500=PLANE('',#563);
#501=PLANE('',#564);
#502=PLANE('',#569);
#503=PLANE('',#570);
#504=PLANE('',#575);
#505=PLANE('',#576);
#506=PLANE('',#577);
#507=PLANE('',#578);
#508=PLANE('',#579);
#509=PLANE('',#580);
#510=PLANE('',#583);
#511=PLANE('',#584);
#512=PLANE('',#585);
#513=PLANE('',#586);
#514=PLANE('',#587);
#515=PLANE('',#588);
#516=PLANE('',#589);
#517=PLANE('',#590);
#518=PLANE('',#591);
#519=PLANE('',#592);
#520=PLANE('',#595);
#521=PLANE('',#601);
#522=ADVANCED_FACE('',(#458),#500,.T.);
#523=ADVANCED_FACE('',(#459,#460,#461,#462,#463),#501,.T.);
#524=ADVANCED_FACE('',(#464),#502,.F.);
#525=ADVANCED_FACE('',(#465,#466,#467,#468,#469,#470),#503,.T.);
#526=ADVANCED_FACE('',(#471),#504,.T.);
#527=ADVANCED_FACE('',(#472),#505,.T.);
#528=ADVANCED_FACE('',(#473),#506,.T.);
#529=ADVANCED_FACE('',(#474),#507,.F.);
#530=ADVANCED_FACE('',(#475),#508,.F.);
#531=ADVANCED_FACE('',(#476),#509,.T.);
#532=ADVANCED_FACE('',(#477),#510,.T.);
#533=ADVANCED_FACE('',(#478),#511,.F.);
#534=ADVANCED_FACE('',(#479),#512,.T.);
#535=ADVANCED_FACE('',(#480),#513,.T.);
#536=ADVANCED_FACE('',(#481),#514,.T.);
#537=ADVANCED_FACE('',(#482),#515,.F.);
#538=ADVANCED_FACE('',(#483),#516,.F.);
#539=ADVANCED_FACE('',(#484),#517,.T.);
#540=ADVANCED_FACE('',(#485),#518,.F.);
#541=ADVANCED_FACE('',(#486,#487),#519,.T.);
#542=ADVANCED_FACE('',(#488),#520,.F.);
#543=ADVANCED_FACE('',(#489,#490),#12,.F.);
#544=ADVANCED_FACE('',(#491,#492),#13,.F.);
#545=ADVANCED_FACE('',(#493,#494),#14,.F.);
#546=ADVANCED_FACE('',(#495,#496),#15,.F.);
#547=ADVANCED_FACE('',(#497),#16,.F.);
#548=ADVANCED_FACE('',(#498),#521,.F.);
#549=ADVANCED_FACE('',(#499),#17,.F.);
#550=CLOSED_SHELL('',(#522,#523,#524,#525,#526,#527,#528,#529,#530,#531,
#532,#533,#534,#535,#536,#537,#538,#539,#540,#541,#542,#543,#544,#545,#546,
#547,#548,#549));
#551=STYLED_ITEM('',(#552),#559);
#552=PRESENTATION_STYLE_ASSIGNMENT((#553));
#553=SURFACE_STYLE_USAGE(.BOTH.,#554);
#554=SURFACE_SIDE_STYLE('',(#555));
#555=SURFACE_STYLE_FILL_AREA(#556);
#556=FILL_AREA_STYLE('',(#557));
#557=FILL_AREA_STYLE_COLOUR('',#558);
#558=COLOUR_RGB('',0.537254901960784,0.854901960784314,0.827450980392157);
#559=MANIFOLD_SOLID_BREP('Back Plate',#550);
#560=SHAPE_DEFINITION_REPRESENTATION(#902,#561);
#561=SHAPE_REPRESENTATION('Back Plate',(#562),#897);
#562=AXIS2_PLACEMENT_3D('',#745,#603,#604);
#563=AXIS2_PLACEMENT_3D('',#746,#605,#606);
#564=AXIS2_PLACEMENT_3D('',#755,#611,#612);
#565=AXIS2_PLACEMENT_3D('',#756,#613,#614);
#566=AXIS2_PLACEMENT_3D('',#758,#615,#616);
#567=AXIS2_PLACEMENT_3D('',#760,#617,#618);
#568=AXIS2_PLACEMENT_3D('',#762,#619,#620);
#569=AXIS2_PLACEMENT_3D('',#777,#628,#629);
#570=AXIS2_PLACEMENT_3D('',#787,#635,#636);
#571=AXIS2_PLACEMENT_3D('',#788,#637,#638);
#572=AXIS2_PLACEMENT_3D('',#790,#639,#640);
#573=AXIS2_PLACEMENT_3D('',#792,#641,#642);
#574=AXIS2_PLACEMENT_3D('',#794,#643,#644);
#575=AXIS2_PLACEMENT_3D('',#810,#653,#654);
#576=AXIS2_PLACEMENT_3D('',#817,#658,#659);
#577=AXIS2_PLACEMENT_3D('',#827,#665,#666);
#578=AXIS2_PLACEMENT_3D('',#831,#669,#670);
#579=AXIS2_PLACEMENT_3D('',#845,#678,#679);
#580=AXIS2_PLACEMENT_3D('',#848,#682,#683);
#581=AXIS2_PLACEMENT_3D('',#849,#684,#685);
#582=AXIS2_PLACEMENT_3D('',#853,#687,#688);
#583=AXIS2_PLACEMENT_3D('',#855,#690,#691);
#584=AXIS2_PLACEMENT_3D('',#857,#693,#694);
#585=AXIS2_PLACEMENT_3D('',#858,#695,#696);
#586=AXIS2_PLACEMENT_3D('',#864,#700,#701);
#587=AXIS2_PLACEMENT_3D('',#869,#705,#706);
#588=AXIS2_PLACEMENT_3D('',#870,#707,#708);
#589=AXIS2_PLACEMENT_3D('',#872,#710,#711);
#590=AXIS2_PLACEMENT_3D('',#876,#714,#715);
#591=AXIS2_PLACEMENT_3D('',#878,#717,#718);
#592=AXIS2_PLACEMENT_3D('',#880,#720,#721);
#593=AXIS2_PLACEMENT_3D('',#881,#722,#723);
#594=AXIS2_PLACEMENT_3D('',#883,#724,#725);
#595=AXIS2_PLACEMENT_3D('',#886,#727,#728);
#596=AXIS2_PLACEMENT_3D('',#887,#729,#730);
#597=AXIS2_PLACEMENT_3D('',#888,#731,#732);
#598=AXIS2_PLACEMENT_3D('',#889,#733,#734);
#599=AXIS2_PLACEMENT_3D('',#890,#735,#736);
#600=AXIS2_PLACEMENT_3D('',#891,#737,#738);
#601=AXIS2_PLACEMENT_3D('',#893,#740,#741);
#602=AXIS2_PLACEMENT_3D('',#895,#743,#744);
#603=DIRECTION('',(0.,0.,1.));
#604=DIRECTION('',(1.,0.,0.));
#605=DIRECTION('',(0.,0.,1.));
#606=DIRECTION('',(1.,0.,0.));
#607=DIRECTION('',(0.,1.,0.));
#608=DIRECTION('',(1.,0.,0.));
#609=DIRECTION('',(0.,1.,0.));
#610=DIRECTION('',(1.,0.,0.));
#611=DIRECTION('',(0.,1.,0.));
#612=DIRECTION('',(0.,0.,1.));
#613=DIRECTION('',(0.,1.,0.));
#614=DIRECTION('',(0.,0.,1.));
#615=DIRECTION('',(0.,1.,0.));
#616=DIRECTION('',(0.,0.,1.));
#617=DIRECTION('',(0.,1.,0.));
#618=DIRECTION('',(0.,0.,1.));
#619=DIRECTION('',(0.,1.,0.));
#620=DIRECTION('',(0.,0.,1.));
#621=DIRECTION('',(0.124034734589208,0.,-0.992277876713668));
#622=DIRECTION('',(0.,0.,1.));
#623=DIRECTION('',(0.,0.,1.));
#624=DIRECTION('',(0.124034734589208,0.,0.992277876713668));
#625=DIRECTION('',(-0.329372156318294,0.,-0.944200181445777));
#626=DIRECTION('',(1.,0.,0.));
#627=DIRECTION('',(0.329372156318294,0.,-0.944200181445777));
#628=DIRECTION('',(-0.992277876713668,0.,0.124034734589209));
#629=DIRECTION('',(0.124034734589209,0.,0.992277876713668));
#630=DIRECTION('',(0.,1.,0.));
#631=DIRECTION('',(0.124034734589209,0.,0.992277876713668));
#632=DIRECTION('',(-0.0995037190209976,-0.597022314126009,-0.79602975216798));
#633=DIRECTION('',(-0.119968927354914,0.253938320277276,-0.959751418839309));
#634=DIRECTION('',(0.,1.,0.));
#635=DIRECTION('',(0.,-1.,0.));
#636=DIRECTION('',(1.,0.,0.));
#637=DIRECTION('',(0.,1.,0.));
#638=DIRECTION('',(0.,0.,1.));
#639=DIRECTION('',(0.,1.,0.));
#640=DIRECTION('',(0.,0.,1.));
#641=DIRECTION('',(0.,1.,0.));
#642=DIRECTION('',(0.,0.,1.));
#643=DIRECTION('',(0.,1.,0.));
#644=DIRECTION('',(0.,0.,1.));
#645=DIRECTION('',(0.,0.,-1.));
#646=DIRECTION('',(0.124034734589209,0.,-0.992277876713668));
#647=DIRECTION('',(-1.,0.,0.));
#648=DIRECTION('',(0.,0.,1.));
#649=DIRECTION('',(0.,0.,1.));
#650=DIRECTION('',(-1.,0.,0.));
#651=DIRECTION('',(0.,0.,-1.));
#652=DIRECTION('',(1.,0.,0.));
#653=DIRECTION('',(0.992277876713668,0.,0.124034734589209));
#654=DIRECTION('',(0.124034734589209,0.,-0.992277876713668));
#655=DIRECTION('',(-0.119968927354914,-0.253938320277276,0.959751418839309));
#656=DIRECTION('',(0.124034734589209,0.,-0.992277876713668));
#657=DIRECTION('',(0.0995037190209989,-0.597022314125995,-0.79602975216799));
#658=DIRECTION('',(0.,0.966733509459461,0.255785694846672));
#659=DIRECTION('',(0.,-0.255785694846672,0.966733509459461));
#660=DIRECTION('',(-0.119968927354914,0.253938320277276,-0.959751418839309));
#661=DIRECTION('',(-1.,0.,0.));
#662=DIRECTION('',(0.0425922631668708,-0.255553579001225,0.965856235356996));
#663=DIRECTION('',(1.,0.,0.));
#664=DIRECTION('',(-0.0425922631668708,-0.255553579001225,0.965856235356996));
#665=DIRECTION('',(-0.992277876713668,0.,0.124034734589209));
#666=DIRECTION('',(0.124034734589209,0.,0.992277876713668));
#667=DIRECTION('',(0.0995037190209989,0.597022314125995,0.79602975216799));
#668=DIRECTION('',(0.124034734589209,0.,0.992277876713668));
#669=DIRECTION('',(0.,1.,0.));
#670=DIRECTION('',(0.,0.,1.));
#671=DIRECTION('',(0.,0.,-1.));
#672=DIRECTION('',(1.,0.,0.));
#673=DIRECTION('',(0.,-2.9909025447876E-16,-1.));
#674=DIRECTION('',(1.,0.,0.));
#675=DIRECTION('',(0.,0.,-1.));
#676=DIRECTION('',(1.,0.,0.));
#677=DIRECTION('',(0.,0.,-1.));
#678=DIRECTION('',(0.,0.,1.));
#679=DIRECTION('',(1.,0.,0.));
#680=DIRECTION('',(0.164398987305357,-0.986393923832144,0.));
#681=DIRECTION('',(0.164398987305357,0.986393923832144,0.));
#682=DIRECTION('',(-0.986393923832144,0.164398987305357,0.));
#683=DIRECTION('',(-0.164398987305357,-0.986393923832144,0.));
#684=DIRECTION('',(-0.986393923832144,0.164398987305357,0.));
#685=DIRECTION('',(0.164398987305357,0.986393923832144,0.));
#686=DIRECTION('',(0.,0.,1.));
#687=DIRECTION('',(-0.986393923832144,0.164398987305357,0.));
#688=DIRECTION('',(0.164398987305357,0.986393923832144,0.));
#689=DIRECTION('',(0.0995037190210012,0.597022314126009,0.79602975216798));
#690=DIRECTION('',(0.986393923832144,0.164398987305357,0.));
#691=DIRECTION('',(-0.164398987305357,0.986393923832144,0.));
#692=DIRECTION('',(-0.0995037190210011,0.597022314126009,0.79602975216798));
#693=DIRECTION('',(0.,0.799999999999989,-0.600000000000015));
#694=DIRECTION('',(0.,0.600000000000015,0.799999999999989));
#695=DIRECTION('',(0.,0.,-1.));
#696=DIRECTION('',(-1.,0.,0.));
#697=DIRECTION('',(1.,0.,0.));
#698=DIRECTION('',(0.,1.,0.));
#699=DIRECTION('',(0.,1.,0.));
#700=DIRECTION('',(0.,-1.,0.));
#701=DIRECTION('',(0.,0.,-1.));
#702=DIRECTION('',(1.,0.,0.));
#703=DIRECTION('',(0.329372156318294,0.,-0.944200181445777));
#704=DIRECTION('',(-0.329372156318294,0.,-0.944200181445777));
#705=DIRECTION('',(0.944200181445776,0.,-0.329372156318294));
#706=DIRECTION('',(-0.329372156318294,0.,-0.944200181445777));
#707=DIRECTION('',(0.944200181445776,0.,0.329372156318294));
#708=DIRECTION('',(0.329372156318294,0.,-0.944200181445777));
#709=DIRECTION('',(0.,1.,0.));
#710=DIRECTION('',(0.,0.966733509459461,0.255785694846672));
#711=DIRECTION('',(0.,-0.255785694846672,0.966733509459461));
#712=DIRECTION('',(1.,0.,0.));
#713=DIRECTION('',(-0.119968927354914,-0.253938320277276,0.959751418839309));
#714=DIRECTION('',(0.,0.799999999999989,-0.600000000000015));
#715=DIRECTION('',(0.,0.600000000000015,0.799999999999989));
#716=DIRECTION('',(-0.0995037190209976,0.597022314126009,0.79602975216798));
#717=DIRECTION('',(0.992277876713668,0.,0.124034734589209));
#718=DIRECTION('',(0.124034734589209,0.,-0.992277876713668));
#719=DIRECTION('',(0.,1.,0.));
#720=DIRECTION('',(1.,0.,0.));
#721=DIRECTION('',(0.,0.,-1.));
#722=DIRECTION('',(1.,0.,0.));
#723=DIRECTION('',(0.,0.,-1.));
#724=DIRECTION('',(1.,0.,0.));
#725=DIRECTION('',(0.,0.,-1.));
#726=DIRECTION('',(0.,0.,-1.));
#727=DIRECTION('',(1.,0.,0.));
#728=DIRECTION('',(0.,0.,-1.));
#729=DIRECTION('',(0.,-1.,0.));
#730=DIRECTION('',(0.,0.,-1.));
#731=DIRECTION('',(0.,-1.,0.));
#732=DIRECTION('',(0.,0.,-1.));
#733=DIRECTION('',(0.,-1.,0.));
#734=DIRECTION('',(0.,0.,-1.));
#735=DIRECTION('',(0.,-1.,0.));
#736=DIRECTION('',(0.,0.,-1.));
#737=DIRECTION('',(1.,0.,0.));
#738=DIRECTION('',(0.,0.,-1.));
#739=DIRECTION('',(1.,0.,0.));
#740=DIRECTION('',(0.,-1.,0.));
#741=DIRECTION('',(0.,0.,-1.));
#742=DIRECTION('',(1.,0.,0.));
#743=DIRECTION('',(1.,0.,0.));
#744=DIRECTION('',(0.,0.,-1.));
#745=CARTESIAN_POINT('',(0.,0.,0.));
#746=CARTESIAN_POINT('',(0.,-0.03,0.2));
#747=CARTESIAN_POINT('',(-0.0735,-0.0045,0.2));
#748=CARTESIAN_POINT('',(-0.0735,-0.009,0.2));
#749=CARTESIAN_POINT('',(-0.0735,0.,0.2));
#750=CARTESIAN_POINT('',(0.,-0.009,0.2));
#751=CARTESIAN_POINT('',(0.0735,-0.009,0.2));
#752=CARTESIAN_POINT('',(0.0735,-0.0045,0.2));
#753=CARTESIAN_POINT('',(0.0735,0.,0.2));
#754=CARTESIAN_POINT('',(0.0375,0.,0.2));
#755=CARTESIAN_POINT('',(0.0375,0.,0.2));
#756=CARTESIAN_POINT('',(-0.0709655156123758,0.,0.0138797692697523));
#757=CARTESIAN_POINT('',(-0.0709655156123758,0.,0.0151797692697523));
#758=CARTESIAN_POINT('',(-0.0709655156123758,0.,0.1975));
#759=CARTESIAN_POINT('',(-0.0709655156123758,0.,0.1988));
#760=CARTESIAN_POINT('',(0.0709655156123758,0.,0.1975));
#761=CARTESIAN_POINT('',(0.0709655156123758,0.,0.1988));
#762=CARTESIAN_POINT('',(0.0709655156123758,0.,0.0138797692697523));
#763=CARTESIAN_POINT('',(0.0709655156123758,0.,0.0151797692697523));
#764=CARTESIAN_POINT('',(-0.0725,0.,0.006));
#765=CARTESIAN_POINT('',(-0.0735,0.,0.014));
#766=CARTESIAN_POINT('',(-0.07,0.,-0.014));
#767=CARTESIAN_POINT('',(-0.0735,0.,-0.3));
#768=CARTESIAN_POINT('',(0.0735,0.,-0.3));
#769=CARTESIAN_POINT('',(0.0735,0.,0.014));
#770=CARTESIAN_POINT('',(0.0725,0.,0.006));
#771=CARTESIAN_POINT('',(0.07,0.,-0.014));
#772=CARTESIAN_POINT('',(0.055,0.,-0.057));
#773=CARTESIAN_POINT('',(0.0609302325581396,0.,-0.04));
#774=CARTESIAN_POINT('',(-0.1,0.,-0.04));
#775=CARTESIAN_POINT('',(-0.0609302325581396,0.,-0.04));
#776=CARTESIAN_POINT('',(-0.055,0.,-0.057));
#777=CARTESIAN_POINT('',(0.0725,-0.1,0.006));
#778=CARTESIAN_POINT('',(0.0735,-0.1,0.014));
#779=CARTESIAN_POINT('',(0.0735,-0.009,0.014));
#780=CARTESIAN_POINT('',(0.0725,-0.009,0.006));
#781=CARTESIAN_POINT('',(0.0727953143793917,-0.009,0.00836251503513362));
#782=CARTESIAN_POINT('',(0.0671993199768128,-0.0425759664154746,-0.0364054401854974));
#783=CARTESIAN_POINT('',(0.0728055594183381,-0.00893852976632187,0.00844447534670446));
#784=CARTESIAN_POINT('',(0.0752938649898403,-0.0142055280724294,0.0283509199187225));
#785=CARTESIAN_POINT('',(0.07,-0.003,-0.014));
#786=CARTESIAN_POINT('',(0.07,-0.1,-0.014));
#787=CARTESIAN_POINT('',(0.,-0.009,0.));
#788=CARTESIAN_POINT('',(-0.0709655156123758,-0.009,0.0138797692697523));
#789=CARTESIAN_POINT('',(-0.0709655156123758,-0.009,0.0151797692697523));
#790=CARTESIAN_POINT('',(-0.0709655156123758,-0.009,0.1975));
#791=CARTESIAN_POINT('',(-0.0709655156123758,-0.009,0.1988));
#792=CARTESIAN_POINT('',(0.0709655156123758,-0.009,0.1975));
#793=CARTESIAN_POINT('',(0.0709655156123758,-0.009,0.1988));
#794=CARTESIAN_POINT('',(0.0709655156123758,-0.009,0.0138797692697523));
#795=CARTESIAN_POINT('',(0.0709655156123758,-0.009,0.0151797692697523));
#796=CARTESIAN_POINT('',(-0.0735,-0.009,0.2));
#797=CARTESIAN_POINT('',(-0.0735,-0.009,0.014));
#798=CARTESIAN_POINT('',(-0.0725,-0.009,0.006));
#799=CARTESIAN_POINT('',(-0.0727953143793917,-0.009,0.00836251503513362));
#800=CARTESIAN_POINT('',(-0.1,-0.009,0.00836251503513362));
#801=CARTESIAN_POINT('',(0.0735,-0.009,0.2));
#802=CARTESIAN_POINT('',(0.0684310312247515,-0.009,0.2));
#803=CARTESIAN_POINT('',(0.0684310312247515,-0.009,0.0166958483684667));
#804=CARTESIAN_POINT('',(0.0684310312247515,-0.009,0.195));
#805=CARTESIAN_POINT('',(-0.1,-0.009,0.0166958483684668));
#806=CARTESIAN_POINT('',(-0.0684310312247515,-0.009,0.0166958483684668));
#807=CARTESIAN_POINT('',(-0.0684310312247515,-0.009,0.2));
#808=CARTESIAN_POINT('',(-0.0684310312247515,-0.009,0.195));
#809=CARTESIAN_POINT('',(0.,-0.009,0.195));
#810=CARTESIAN_POINT('',(-0.0675386106164317,-0.1,0.00662017367294602));
#811=CARTESIAN_POINT('',(-0.0704850418244644,-0.0095204992068959,0.0301916233372079));
#812=CARTESIAN_POINT('',(-0.0683494073114541,-0.00500000000000009,0.0131065472331254));
#813=CARTESIAN_POINT('',(-0.0689025561350855,-0.00617085053799617,0.0175317378221765));
#814=CARTESIAN_POINT('',(-0.089723226001047,-0.005,0.184097096749869));
#815=CARTESIAN_POINT('',(-0.0690976978914182,-0.005,0.0190928718728379));
#816=CARTESIAN_POINT('',(-0.0828666021203872,0.0776134253738146,0.12924410570459));
#817=CARTESIAN_POINT('',(-0.1,-0.00113559733586363,-0.00149883385241442));
#818=CARTESIAN_POINT('',(0.0704850418244644,-0.0095204992068959,0.0301916233372079));
#819=CARTESIAN_POINT('',(0.0689025561350855,-0.00617085053799617,0.0175317378221765));
#820=CARTESIAN_POINT('',(0.068349407311454,-0.005,0.0131065472331246));
#821=CARTESIAN_POINT('',(-0.1,-0.005,0.0131065472331246));
#822=CARTESIAN_POINT('',(-0.0613066005450762,-0.0517465840780518,0.189783703897833));
#823=CARTESIAN_POINT('',(-0.068806838530103,-0.00674515616789071,0.019702306811279));
#824=CARTESIAN_POINT('',(-0.1,-0.00674515616789072,0.019702306811279));
#825=CARTESIAN_POINT('',(0.068806838530103,-0.00674515616789072,0.019702306811279));
#826=CARTESIAN_POINT('',(0.06943383631656,-0.00298316944914899,0.0054840033782855));
#827=CARTESIAN_POINT('',(0.0675386106164317,-0.1,0.00662017367294603));
#828=CARTESIAN_POINT('',(0.0828666021203872,0.0776134253738146,0.12924410570459));
#829=CARTESIAN_POINT('',(0.0690976978914182,-0.005,0.0190928718728379));
#830=CARTESIAN_POINT('',(0.0908770721548932,-0.005,0.193327865980639));
#831=CARTESIAN_POINT('',(0.0375,-0.005,0.2));
#832=CARTESIAN_POINT('',(0.0690976978914182,-0.005,0.2));
#833=CARTESIAN_POINT('',(0.0690976978914182,-0.005,0.0231));
#834=CARTESIAN_POINT('',(0.0485,-0.005,0.0231));
#835=CARTESIAN_POINT('',(0.0735,-0.005,0.0231));
#836=CARTESIAN_POINT('',(0.0735,-0.005,0.026));
#837=CARTESIAN_POINT('',(0.0735,-0.005,0.0289));
#838=CARTESIAN_POINT('',(0.0485,-0.005,0.0289));
#839=CARTESIAN_POINT('',(0.0690976978914182,-0.005,0.0289));
#840=CARTESIAN_POINT('',(0.0690976978914182,-0.005,0.2));
#841=CARTESIAN_POINT('',(0.0690976978914182,-0.005,0.195));
#842=CARTESIAN_POINT('',(0.0375,-0.005,0.195));
#843=CARTESIAN_POINT('',(-0.0690976978914182,-0.005,0.195));
#844=CARTESIAN_POINT('',(-0.0690976978914182,-0.005,0.2));
#845=CARTESIAN_POINT('',(0.,-0.03,0.195));
#846=CARTESIAN_POINT('',(-0.0675680303808393,-0.0141780050634732,0.195));
#847=CARTESIAN_POINT('',(0.0675680303808393,-0.0141780050634732,0.195));
#848=CARTESIAN_POINT('',(0.0675680303808393,-0.0141780050634732,0.2));
#849=CARTESIAN_POINT('',(0.0688310312247515,-0.0066,0.0289));
#850=CARTESIAN_POINT('',(0.0685643645580848,-0.0082,0.0289));
#851=CARTESIAN_POINT('',(0.0685643645580848,-0.0082,0.2));
#852=CARTESIAN_POINT('',(0.0685643645580848,-0.0082,0.0231));
#853=CARTESIAN_POINT('',(0.0688310312247515,-0.0066,0.0231));
#854=CARTESIAN_POINT('',(0.0647258606669564,-0.0312310233467703,-0.0129455160938925));
#855=CARTESIAN_POINT('',(-0.0675680303808393,-0.0141780050634732,0.2));
#856=CARTESIAN_POINT('',(-0.0826340231240339,0.0762179513956948,0.130319783562722));
#857=CARTESIAN_POINT('',(-0.1,-0.0213474717067524,0.000232552759464144));
#858=CARTESIAN_POINT('',(-0.1,-0.0015,-0.04));
#859=CARTESIAN_POINT('',(-0.1,-0.003,-0.04));
#860=CARTESIAN_POINT('',(-0.0609302325581396,-0.003,-0.04));
#861=CARTESIAN_POINT('',(0.0609302325581395,-0.003,-0.04));
#862=CARTESIAN_POINT('',(-0.0609302325581396,-0.1,-0.04));
#863=CARTESIAN_POINT('',(0.0609302325581396,-0.1,-0.04));
#864=CARTESIAN_POINT('',(-0.1,-0.003,-0.035));
#865=CARTESIAN_POINT('',(-0.1,-0.003,-0.014));
#866=CARTESIAN_POINT('',(-0.07,-0.003,-0.014));
#867=CARTESIAN_POINT('',(-0.055,-0.003,-0.057));
#868=CARTESIAN_POINT('',(0.055,-0.003,-0.057));
#869=CARTESIAN_POINT('',(0.055,-0.1,-0.057));
#870=CARTESIAN_POINT('',(-0.055,-0.1,-0.057));
#871=CARTESIAN_POINT('',(-0.07,-0.1,-0.014));
#872=CARTESIAN_POINT('',(-0.1,-0.00596926488316093,-0.00277776232664779));
#873=CARTESIAN_POINT('',(-0.1,-0.00893852976632187,0.00844447534670446));
#874=CARTESIAN_POINT('',(-0.0728055594183381,-0.00893852976632187,0.00844447534670446));
#875=CARTESIAN_POINT('',(-0.0752938649898403,-0.0142055280724294,0.0283509199187225));
#876=CARTESIAN_POINT('',(-0.1,-0.0173474717067525,-0.00276744724053594));
#877=CARTESIAN_POINT('',(-0.0671993199768128,-0.0425759664154746,-0.0364054401854974));
#878=CARTESIAN_POINT('',(-0.0725,-0.1,0.006));
#879=CARTESIAN_POINT('',(-0.0735,-0.1,0.014));
#880=CARTESIAN_POINT('',(0.0735,-0.0045,-0.3));
#881=CARTESIAN_POINT('',(0.0735,-0.0066,0.0289));
#882=CARTESIAN_POINT('',(0.0735,-0.0082,0.0289));
#883=CARTESIAN_POINT('',(0.0735,-0.0066,0.0231));
#884=CARTESIAN_POINT('',(0.0735,-0.0082,0.0231));
#885=CARTESIAN_POINT('',(0.0735,-0.0082,0.02745));
#886=CARTESIAN_POINT('',(-0.0735,-0.0045,-0.3));
#887=CARTESIAN_POINT('',(0.0709655156123758,0.016,0.0138797692697523));
#888=CARTESIAN_POINT('',(0.0709655156123758,0.016,0.1975));
#889=CARTESIAN_POINT('',(-0.0709655156123758,0.016,0.1975));
#890=CARTESIAN_POINT('',(-0.0709655156123758,0.016,0.0138797692697523));
#891=CARTESIAN_POINT('',(0.0485,-0.0066,0.0289));
#892=CARTESIAN_POINT('',(0.0485,-0.0082,0.0289));
#893=CARTESIAN_POINT('',(0.0485,-0.0082,0.02745));
#894=CARTESIAN_POINT('',(0.0485,-0.0082,0.0231));
#895=CARTESIAN_POINT('',(0.0485,-0.0066,0.0231));
#896=MECHANICAL_DESIGN_GEOMETRIC_PRESENTATION_REPRESENTATION('',(#551),
#897);
#897=(
GEOMETRIC_REPRESENTATION_CONTEXT(3)
GLOBAL_UNCERTAINTY_ASSIGNED_CONTEXT((#898))
GLOBAL_UNIT_ASSIGNED_CONTEXT((#901,#900,#899))
REPRESENTATION_CONTEXT('Back Plate','TOP_LEVEL_ASSEMBLY_PART')
);
#898=UNCERTAINTY_MEASURE_WITH_UNIT(LENGTH_MEASURE(1.E-8),#901,
'DISTANCE_ACCURACY_VALUE','Maximum Tolerance applied to model');
#899=(
NAMED_UNIT(*)
SI_UNIT($,.STERADIAN.)
SOLID_ANGLE_UNIT()
);
#900=(
NAMED_UNIT(*)
PLANE_ANGLE_UNIT()
SI_UNIT($,.RADIAN.)
);
#901=(
LENGTH_UNIT()
NAMED_UNIT(*)
SI_UNIT($,.METRE.)
);
#902=PRODUCT_DEFINITION_SHAPE('','',#903);
#903=PRODUCT_DEFINITION('','',#905,#904);
#904=PRODUCT_DEFINITION_CONTEXT('',#911,'design');
#905=PRODUCT_DEFINITION_FORMATION_WITH_SPECIFIED_SOURCE('','',#907,
 .NOT_KNOWN.);
#906=PRODUCT_RELATED_PRODUCT_CATEGORY('','',(#907));
#907=PRODUCT('Back Plate','Back Plate','Back Plate',(#909));
#908=PRODUCT_CATEGORY('','');
#909=PRODUCT_CONTEXT('',#911,'mechanical');
#910=APPLICATION_PROTOCOL_DEFINITION('international standard',
'ap242_managed_model_based_3d_engineering',2020,#911);
#911=APPLICATION_CONTEXT('managed model based 3d engineering');
ENDSEC;
END-ISO-10303-21;
