ISO-10303-21;
HEADER;
/* Generated by software containing ST-Developer
 * from STEP Tools, Inc. (www.steptools.com) 
 */
/* OPTION: using custom renumber hook */

FILE_DESCRIPTION(
/* description */ ('STEP AP242 Edition 2',
'CAx-IF Rec.Pracs.---Representation and Presentation of Product Manufa
cturing Information (PMI)---4.0---2014-10-13',
'CAx-IF Rec.Pracs.---3D Tessellated Geometry---0.4---2014-09-14','2;1',
'CAx-IF Rec.Pracs.---User Defined Attributes---1.5---2016-08-15'),
/* implementation_level */ '2;1');

FILE_NAME(
/* name */ 'Part Studio 1 - Front Cover',
/* time_stamp */ '2026-08-22T09:09:42Z',
/* author */ (''),
/* organization */ (''),
/* preprocessor_version */ 'ST-DEVELOPER v20',
/* originating_system */ 'ONSHAPE BY PTC INC, 1.219',
/* authorisation */ '  ');

FILE_SCHEMA (('AP242_MANAGED_MODEL_BASED_3D_ENGINEERING_MIM_LF { 1 0 10303 442 3 1 4 }'));
ENDSEC;

DATA;
#10=SHAPE_REPRESENTATION_RELATIONSHIP('','',#1185,#11);
#11=ADVANCED_BREP_SHAPE_REPRESENTATION('',(#1183),#1883);
#12=CYLINDRICAL_SURFACE('',#1225,0.0013);
#13=CYLINDRICAL_SURFACE('',#1228,0.0013);
#14=CYLINDRICAL_SURFACE('',#1248,0.0013);
#15=CYLINDRICAL_SURFACE('',#1249,0.0013);
#16=CYLINDRICAL_SURFACE('',#1258,0.00608);
#17=ELLIPSE('',#1200,0.00281425229856883,0.0013);
#18=ELLIPSE('',#1201,0.00281425229856883,0.0013);
#19=LINE('',#1562,#163);
#20=LINE('',#1565,#164);
#21=LINE('',#1567,#165);
#22=LINE('',#1569,#166);
#23=LINE('',#1571,#167);
#24=LINE('',#1574,#168);
#25=LINE('',#1576,#169);
#26=LINE('',#1578,#170);
#27=LINE('',#1580,#171);
#28=LINE('',#1583,#172);
#29=LINE('',#1585,#173);
#30=LINE('',#1587,#174);
#31=LINE('',#1589,#175);
#32=LINE('',#1591,#176);
#33=LINE('',#1593,#177);
#34=LINE('',#1595,#178);
#35=LINE('',#1597,#179);
#36=LINE('',#1599,#180);
#37=LINE('',#1600,#181);
#38=LINE('',#1603,#182);
#39=LINE('',#1605,#183);
#40=LINE('',#1607,#184);
#41=LINE('',#1609,#185);
#42=LINE('',#1612,#186);
#43=LINE('',#1614,#187);
#44=LINE('',#1616,#188);
#45=LINE('',#1618,#189);
#46=LINE('',#1619,#190);
#47=LINE('',#1621,#191);
#48=LINE('',#1624,#192);
#49=LINE('',#1626,#193);
#50=LINE('',#1628,#194);
#51=LINE('',#1630,#195);
#52=LINE('',#1631,#196);
#53=LINE('',#1633,#197);
#54=LINE('',#1636,#198);
#55=LINE('',#1638,#199);
#56=LINE('',#1640,#200);
#57=LINE('',#1642,#201);
#58=LINE('',#1644,#202);
#59=LINE('',#1646,#203);
#60=LINE('',#1648,#204);
#61=LINE('',#1650,#205);
#62=LINE('',#1652,#206);
#63=LINE('',#1654,#207);
#64=LINE('',#1658,#208);
#65=LINE('',#1661,#209);
#66=LINE('',#1662,#210);
#67=LINE('',#1663,#211);
#68=LINE('',#1665,#212);
#69=LINE('',#1666,#213);
#70=LINE('',#1668,#214);
#71=LINE('',#1670,#215);
#72=LINE('',#1671,#216);
#73=LINE('',#1674,#217);
#74=LINE('',#1676,#218);
#75=LINE('',#1678,#219);
#76=LINE('',#1680,#220);
#77=LINE('',#1682,#221);
#78=LINE('',#1684,#222);
#79=LINE('',#1685,#223);
#80=LINE('',#1688,#224);
#81=LINE('',#1690,#225);
#82=LINE('',#1692,#226);
#83=LINE('',#1696,#227);
#84=LINE('',#1700,#228);
#85=LINE('',#1702,#229);
#86=LINE('',#1704,#230);
#87=LINE('',#1706,#231);
#88=LINE('',#1707,#232);
#89=LINE('',#1710,#233);
#90=LINE('',#1712,#234);
#91=LINE('',#1714,#235);
#92=LINE('',#1717,#236);
#93=LINE('',#1718,#237);
#94=LINE('',#1720,#238);
#95=LINE('',#1723,#239);
#96=LINE('',#1725,#240);
#97=LINE('',#1727,#241);
#98=LINE('',#1729,#242);
#99=LINE('',#1730,#243);
#100=LINE('',#1732,#244);
#101=LINE('',#1734,#245);
#102=LINE('',#1736,#246);
#103=LINE('',#1738,#247);
#104=LINE('',#1740,#248);
#105=LINE('',#1741,#249);
#106=LINE('',#1743,#250);
#107=LINE('',#1744,#251);
#108=LINE('',#1749,#252);
#109=LINE('',#1750,#253);
#110=LINE('',#1752,#254);
#111=LINE('',#1754,#255);
#112=LINE('',#1760,#256);
#113=LINE('',#1762,#257);
#114=LINE('',#1764,#258);
#115=LINE('',#1766,#259);
#116=LINE('',#1768,#260);
#117=LINE('',#1769,#261);
#118=LINE('',#1771,#262);
#119=LINE('',#1773,#263);
#120=LINE('',#1776,#264);
#121=LINE('',#1778,#265);
#122=LINE('',#1780,#266);
#123=LINE('',#1782,#267);
#124=LINE('',#1784,#268);
#125=LINE('',#1786,#269);
#126=LINE('',#1787,#270);
#127=LINE('',#1789,#271);
#128=LINE('',#1791,#272);
#129=LINE('',#1792,#273);
#130=LINE('',#1794,#274);
#131=LINE('',#1807,#275);
#132=LINE('',#1809,#276);
#133=LINE('',#1811,#277);
#134=LINE('',#1812,#278);
#135=LINE('',#1814,#279);
#136=LINE('',#1816,#280);
#137=LINE('',#1818,#281);
#138=LINE('',#1819,#282);
#139=LINE('',#1824,#283);
#140=LINE('',#1827,#284);
#141=LINE('',#1828,#285);
#142=LINE('',#1830,#286);
#143=LINE('',#1832,#287);
#144=LINE('',#1834,#288);
#145=LINE('',#1836,#289);
#146=LINE('',#1838,#290);
#147=LINE('',#1844,#291);
#148=LINE('',#1846,#292);
#149=LINE('',#1847,#293);
#150=LINE('',#1853,#294);
#151=LINE('',#1854,#295);
#152=LINE('',#1856,#296);
#153=LINE('',#1860,#297);
#154=LINE('',#1862,#298);
#155=LINE('',#1864,#299);
#156=LINE('',#1866,#300);
#157=LINE('',#1868,#301);
#158=LINE('',#1870,#302);
#159=LINE('',#1872,#303);
#160=LINE('',#1874,#304);
#161=LINE('',#1878,#305);
#162=LINE('',#1880,#306);
#163=VECTOR('',#1268,1.);
#164=VECTOR('',#1269,1.);
#165=VECTOR('',#1270,1.);
#166=VECTOR('',#1271,1.);
#167=VECTOR('',#1274,1.);
#168=VECTOR('',#1275,1.);
#169=VECTOR('',#1276,1.);
#170=VECTOR('',#1277,1.);
#171=VECTOR('',#1280,1.);
#172=VECTOR('',#1281,1.);
#173=VECTOR('',#1282,1.);
#174=VECTOR('',#1283,1.);
#175=VECTOR('',#1284,1.);
#176=VECTOR('',#1285,1.);
#177=VECTOR('',#1286,1.);
#178=VECTOR('',#1287,1.);
#179=VECTOR('',#1288,1.);
#180=VECTOR('',#1289,1.);
#181=VECTOR('',#1290,1.);
#182=VECTOR('',#1291,1.);
#183=VECTOR('',#1292,1.);
#184=VECTOR('',#1293,1.);
#185=VECTOR('',#1296,1.);
#186=VECTOR('',#1297,1.);
#187=VECTOR('',#1298,1.);
#188=VECTOR('',#1299,1.);
#189=VECTOR('',#1300,1.);
#190=VECTOR('',#1301,1.);
#191=VECTOR('',#1304,1.);
#192=VECTOR('',#1305,1.);
#193=VECTOR('',#1306,1.);
#194=VECTOR('',#1307,1.);
#195=VECTOR('',#1310,1.);
#196=VECTOR('',#1311,1.);
#197=VECTOR('',#1314,1.);
#198=VECTOR('',#1315,1.);
#199=VECTOR('',#1316,1.);
#200=VECTOR('',#1317,1.);
#201=VECTOR('',#1320,1.);
#202=VECTOR('',#1321,1.);
#203=VECTOR('',#1322,1.);
#204=VECTOR('',#1325,1.);
#205=VECTOR('',#1326,1.);
#206=VECTOR('',#1327,1.);
#207=VECTOR('',#1328,1.);
#208=VECTOR('',#1333,1.);
#209=VECTOR('',#1334,1.);
#210=VECTOR('',#1335,1.);
#211=VECTOR('',#1336,1.);
#212=VECTOR('',#1337,1.);
#213=VECTOR('',#1338,1.);
#214=VECTOR('',#1339,1.);
#215=VECTOR('',#1340,1.);
#216=VECTOR('',#1341,1.);
#217=VECTOR('',#1342,1.);
#218=VECTOR('',#1343,1.);
#219=VECTOR('',#1344,1.);
#220=VECTOR('',#1347,1.);
#221=VECTOR('',#1348,1.);
#222=VECTOR('',#1349,1.);
#223=VECTOR('',#1350,1.);
#224=VECTOR('',#1351,1.);
#225=VECTOR('',#1352,1.);
#226=VECTOR('',#1353,1.);
#227=VECTOR('',#1356,1.);
#228=VECTOR('',#1359,1.);
#229=VECTOR('',#1362,1.);
#230=VECTOR('',#1363,1.);
#231=VECTOR('',#1366,1.);
#232=VECTOR('',#1367,1.);
#233=VECTOR('',#1372,1.);
#234=VECTOR('',#1373,1.);
#235=VECTOR('',#1376,1.);
#236=VECTOR('',#1377,1.);
#237=VECTOR('',#1378,1.);
#238=VECTOR('',#1381,1.);
#239=VECTOR('',#1382,1.);
#240=VECTOR('',#1383,1.);
#241=VECTOR('',#1384,1.);
#242=VECTOR('',#1385,1.);
#243=VECTOR('',#1386,1.);
#244=VECTOR('',#1389,1.);
#245=VECTOR('',#1392,1.);
#246=VECTOR('',#1393,1.);
#247=VECTOR('',#1394,1.);
#248=VECTOR('',#1395,1.);
#249=VECTOR('',#1396,1.);
#250=VECTOR('',#1399,1.);
#251=VECTOR('',#1400,1.);
#252=VECTOR('',#1405,1.);
#253=VECTOR('',#1406,1.);
#254=VECTOR('',#1407,1.);
#255=VECTOR('',#1408,1.);
#256=VECTOR('',#1415,1.);
#257=VECTOR('',#1416,1.);
#258=VECTOR('',#1419,1.);
#259=VECTOR('',#1420,1.);
#260=VECTOR('',#1421,1.);
#261=VECTOR('',#1422,1.);
#262=VECTOR('',#1423,1.);
#263=VECTOR('',#1426,1.);
#264=VECTOR('',#1427,1.);
#265=VECTOR('',#1428,1.);
#266=VECTOR('',#1429,1.);
#267=VECTOR('',#1430,1.);
#268=VECTOR('',#1431,1.);
#269=VECTOR('',#1434,1.);
#270=VECTOR('',#1435,1.);
#271=VECTOR('',#1438,1.);
#272=VECTOR('',#1441,1.);
#273=VECTOR('',#1442,1.);
#274=VECTOR('',#1445,1.);
#275=VECTOR('',#1466,1.);
#276=VECTOR('',#1467,1.);
#277=VECTOR('',#1468,1.);
#278=VECTOR('',#1469,1.);
#279=VECTOR('',#1470,1.);
#280=VECTOR('',#1473,1.);
#281=VECTOR('',#1476,1.);
#282=VECTOR('',#1477,1.);
#283=VECTOR('',#1486,1.);
#284=VECTOR('',#1487,1.);
#285=VECTOR('',#1488,1.);
#286=VECTOR('',#1491,1.);
#287=VECTOR('',#1492,1.);
#288=VECTOR('',#1495,1.);
#289=VECTOR('',#1496,1.);
#290=VECTOR('',#1499,1.);
#291=VECTOR('',#1510,1.);
#292=VECTOR('',#1511,1.);
#293=VECTOR('',#1512,1.);
#294=VECTOR('',#1523,1.);
#295=VECTOR('',#1524,1.);
#296=VECTOR('',#1525,1.);
#297=VECTOR('',#1532,1.);
#298=VECTOR('',#1533,1.);
#299=VECTOR('',#1534,1.);
#300=VECTOR('',#1537,1.);
#301=VECTOR('',#1538,1.);
#302=VECTOR('',#1541,1.);
#303=VECTOR('',#1542,1.);
#304=VECTOR('',#1545,1.);
#305=VECTOR('',#1552,1.);
#306=VECTOR('',#1555,1.);
#307=ORIENTED_EDGE('',*,*,#619,.F.);
#308=ORIENTED_EDGE('',*,*,#620,.T.);
#309=ORIENTED_EDGE('',*,*,#621,.T.);
#310=ORIENTED_EDGE('',*,*,#622,.F.);
#311=ORIENTED_EDGE('',*,*,#623,.F.);
#312=ORIENTED_EDGE('',*,*,#624,.T.);
#313=ORIENTED_EDGE('',*,*,#625,.T.);
#314=ORIENTED_EDGE('',*,*,#626,.F.);
#315=ORIENTED_EDGE('',*,*,#627,.F.);
#316=ORIENTED_EDGE('',*,*,#628,.F.);
#317=ORIENTED_EDGE('',*,*,#629,.T.);
#318=ORIENTED_EDGE('',*,*,#630,.T.);
#319=ORIENTED_EDGE('',*,*,#631,.T.);
#320=ORIENTED_EDGE('',*,*,#632,.T.);
#321=ORIENTED_EDGE('',*,*,#633,.T.);
#322=ORIENTED_EDGE('',*,*,#634,.T.);
#323=ORIENTED_EDGE('',*,*,#635,.F.);
#324=ORIENTED_EDGE('',*,*,#636,.F.);
#325=ORIENTED_EDGE('',*,*,#637,.F.);
#326=ORIENTED_EDGE('',*,*,#638,.F.);
#327=ORIENTED_EDGE('',*,*,#639,.T.);
#328=ORIENTED_EDGE('',*,*,#640,.T.);
#329=ORIENTED_EDGE('',*,*,#641,.F.);
#330=ORIENTED_EDGE('',*,*,#642,.F.);
#331=ORIENTED_EDGE('',*,*,#643,.F.);
#332=ORIENTED_EDGE('',*,*,#644,.T.);
#333=ORIENTED_EDGE('',*,*,#645,.F.);
#334=ORIENTED_EDGE('',*,*,#646,.F.);
#335=ORIENTED_EDGE('',*,*,#620,.F.);
#336=ORIENTED_EDGE('',*,*,#647,.F.);
#337=ORIENTED_EDGE('',*,*,#648,.F.);
#338=ORIENTED_EDGE('',*,*,#649,.T.);
#339=ORIENTED_EDGE('',*,*,#650,.F.);
#340=ORIENTED_EDGE('',*,*,#651,.T.);
#341=ORIENTED_EDGE('',*,*,#652,.F.);
#342=ORIENTED_EDGE('',*,*,#651,.F.);
#343=ORIENTED_EDGE('',*,*,#653,.F.);
#344=ORIENTED_EDGE('',*,*,#630,.F.);
#345=ORIENTED_EDGE('',*,*,#654,.T.);
#346=ORIENTED_EDGE('',*,*,#655,.F.);
#347=ORIENTED_EDGE('',*,*,#656,.F.);
#348=ORIENTED_EDGE('',*,*,#657,.T.);
#349=ORIENTED_EDGE('',*,*,#658,.T.);
#350=ORIENTED_EDGE('',*,*,#632,.F.);
#351=ORIENTED_EDGE('',*,*,#659,.T.);
#352=ORIENTED_EDGE('',*,*,#660,.T.);
#353=ORIENTED_EDGE('',*,*,#661,.F.);
#354=ORIENTED_EDGE('',*,*,#662,.F.);
#355=ORIENTED_EDGE('',*,*,#663,.T.);
#356=ORIENTED_EDGE('',*,*,#664,.T.);
#357=ORIENTED_EDGE('',*,*,#654,.F.);
#358=ORIENTED_EDGE('',*,*,#665,.F.);
#359=ORIENTED_EDGE('',*,*,#666,.F.);
#360=ORIENTED_EDGE('',*,*,#667,.F.);
#361=ORIENTED_EDGE('',*,*,#656,.T.);
#362=ORIENTED_EDGE('',*,*,#668,.T.);
#363=ORIENTED_EDGE('',*,*,#669,.F.);
#364=ORIENTED_EDGE('',*,*,#670,.T.);
#365=ORIENTED_EDGE('',*,*,#671,.T.);
#366=ORIENTED_EDGE('',*,*,#672,.F.);
#367=ORIENTED_EDGE('',*,*,#673,.F.);
#368=ORIENTED_EDGE('',*,*,#658,.F.);
#369=ORIENTED_EDGE('',*,*,#674,.F.);
#370=ORIENTED_EDGE('',*,*,#675,.T.);
#371=ORIENTED_EDGE('',*,*,#676,.T.);
#372=ORIENTED_EDGE('',*,*,#677,.F.);
#373=ORIENTED_EDGE('',*,*,#667,.T.);
#374=ORIENTED_EDGE('',*,*,#678,.F.);
#375=ORIENTED_EDGE('',*,*,#679,.T.);
#376=ORIENTED_EDGE('',*,*,#680,.F.);
#377=ORIENTED_EDGE('',*,*,#661,.T.);
#378=ORIENTED_EDGE('',*,*,#657,.F.);
#379=ORIENTED_EDGE('',*,*,#681,.F.);
#380=ORIENTED_EDGE('',*,*,#682,.T.);
#381=ORIENTED_EDGE('',*,*,#683,.T.);
#382=ORIENTED_EDGE('',*,*,#684,.F.);
#383=ORIENTED_EDGE('',*,*,#685,.F.);
#384=ORIENTED_EDGE('',*,*,#686,.T.);
#385=ORIENTED_EDGE('',*,*,#687,.F.);
#386=ORIENTED_EDGE('',*,*,#688,.T.);
#387=ORIENTED_EDGE('',*,*,#660,.F.);
#388=ORIENTED_EDGE('',*,*,#689,.T.);
#389=ORIENTED_EDGE('',*,*,#690,.T.);
#390=ORIENTED_EDGE('',*,*,#669,.T.);
#391=ORIENTED_EDGE('',*,*,#631,.F.);
#392=ORIENTED_EDGE('',*,*,#653,.T.);
#393=ORIENTED_EDGE('',*,*,#650,.T.);
#394=ORIENTED_EDGE('',*,*,#691,.T.);
#395=ORIENTED_EDGE('',*,*,#637,.T.);
#396=ORIENTED_EDGE('',*,*,#692,.T.);
#397=ORIENTED_EDGE('',*,*,#689,.F.);
#398=ORIENTED_EDGE('',*,*,#659,.F.);
#399=ORIENTED_EDGE('',*,*,#670,.F.);
#400=ORIENTED_EDGE('',*,*,#690,.F.);
#401=ORIENTED_EDGE('',*,*,#692,.F.);
#402=ORIENTED_EDGE('',*,*,#636,.T.);
#403=ORIENTED_EDGE('',*,*,#693,.F.);
#404=ORIENTED_EDGE('',*,*,#678,.T.);
#405=ORIENTED_EDGE('',*,*,#666,.T.);
#406=ORIENTED_EDGE('',*,*,#694,.T.);
#407=ORIENTED_EDGE('',*,*,#695,.T.);
#408=ORIENTED_EDGE('',*,*,#696,.F.);
#409=ORIENTED_EDGE('',*,*,#679,.F.);
#410=ORIENTED_EDGE('',*,*,#693,.T.);
#411=ORIENTED_EDGE('',*,*,#697,.T.);
#412=ORIENTED_EDGE('',*,*,#698,.F.);
#413=ORIENTED_EDGE('',*,*,#699,.T.);
#414=ORIENTED_EDGE('',*,*,#700,.T.);
#415=ORIENTED_EDGE('',*,*,#701,.T.);
#416=ORIENTED_EDGE('',*,*,#702,.F.);
#417=ORIENTED_EDGE('',*,*,#624,.F.);
#418=ORIENTED_EDGE('',*,*,#703,.T.);
#419=ORIENTED_EDGE('',*,*,#649,.F.);
#420=ORIENTED_EDGE('',*,*,#704,.T.);
#421=ORIENTED_EDGE('',*,*,#628,.T.);
#422=ORIENTED_EDGE('',*,*,#691,.F.);
#423=ORIENTED_EDGE('',*,*,#644,.F.);
#424=ORIENTED_EDGE('',*,*,#705,.T.);
#425=ORIENTED_EDGE('',*,*,#706,.T.);
#426=ORIENTED_EDGE('',*,*,#707,.F.);
#427=ORIENTED_EDGE('',*,*,#708,.F.);
#428=ORIENTED_EDGE('',*,*,#626,.T.);
#429=ORIENTED_EDGE('',*,*,#709,.F.);
#430=ORIENTED_EDGE('',*,*,#707,.T.);
#431=ORIENTED_EDGE('',*,*,#710,.F.);
#432=ORIENTED_EDGE('',*,*,#698,.T.);
#433=ORIENTED_EDGE('',*,*,#711,.F.);
#434=ORIENTED_EDGE('',*,*,#712,.F.);
#435=ORIENTED_EDGE('',*,*,#713,.F.);
#436=ORIENTED_EDGE('',*,*,#714,.T.);
#437=ORIENTED_EDGE('',*,*,#695,.F.);
#438=ORIENTED_EDGE('',*,*,#715,.F.);
#439=ORIENTED_EDGE('',*,*,#716,.T.);
#440=ORIENTED_EDGE('',*,*,#717,.F.);
#441=ORIENTED_EDGE('',*,*,#663,.F.);
#442=ORIENTED_EDGE('',*,*,#718,.F.);
#443=ORIENTED_EDGE('',*,*,#719,.F.);
#444=ORIENTED_EDGE('',*,*,#720,.F.);
#445=ORIENTED_EDGE('',*,*,#647,.T.);
#446=ORIENTED_EDGE('',*,*,#623,.T.);
#447=ORIENTED_EDGE('',*,*,#721,.F.);
#448=ORIENTED_EDGE('',*,*,#635,.T.);
#449=ORIENTED_EDGE('',*,*,#722,.F.);
#450=ORIENTED_EDGE('',*,*,#723,.F.);
#451=ORIENTED_EDGE('',*,*,#724,.F.);
#452=ORIENTED_EDGE('',*,*,#675,.F.);
#453=ORIENTED_EDGE('',*,*,#725,.T.);
#454=ORIENTED_EDGE('',*,*,#726,.F.);
#455=ORIENTED_EDGE('',*,*,#671,.F.);
#456=ORIENTED_EDGE('',*,*,#727,.T.);
#457=ORIENTED_EDGE('',*,*,#728,.T.);
#458=ORIENTED_EDGE('',*,*,#729,.T.);
#459=ORIENTED_EDGE('',*,*,#730,.F.);
#460=ORIENTED_EDGE('',*,*,#731,.F.);
#461=ORIENTED_EDGE('',*,*,#732,.T.);
#462=ORIENTED_EDGE('',*,*,#733,.F.);
#463=ORIENTED_EDGE('',*,*,#715,.T.);
#464=ORIENTED_EDGE('',*,*,#697,.F.);
#465=ORIENTED_EDGE('',*,*,#734,.T.);
#466=ORIENTED_EDGE('',*,*,#729,.F.);
#467=ORIENTED_EDGE('',*,*,#735,.T.);
#468=ORIENTED_EDGE('',*,*,#730,.T.);
#469=ORIENTED_EDGE('',*,*,#734,.F.);
#470=ORIENTED_EDGE('',*,*,#694,.F.);
#471=ORIENTED_EDGE('',*,*,#664,.F.);
#472=ORIENTED_EDGE('',*,*,#717,.T.);
#473=ORIENTED_EDGE('',*,*,#736,.F.);
#474=ORIENTED_EDGE('',*,*,#727,.F.);
#475=ORIENTED_EDGE('',*,*,#737,.F.);
#476=ORIENTED_EDGE('',*,*,#732,.F.);
#477=ORIENTED_EDGE('',*,*,#738,.F.);
#478=ORIENTED_EDGE('',*,*,#655,.T.);
#479=ORIENTED_EDGE('',*,*,#737,.T.);
#480=ORIENTED_EDGE('',*,*,#738,.T.);
#481=ORIENTED_EDGE('',*,*,#731,.T.);
#482=ORIENTED_EDGE('',*,*,#735,.F.);
#483=ORIENTED_EDGE('',*,*,#668,.F.);
#484=ORIENTED_EDGE('',*,*,#716,.F.);
#485=ORIENTED_EDGE('',*,*,#733,.T.);
#486=ORIENTED_EDGE('',*,*,#728,.F.);
#487=ORIENTED_EDGE('',*,*,#736,.T.);
#488=ORIENTED_EDGE('',*,*,#708,.T.);
#489=ORIENTED_EDGE('',*,*,#711,.T.);
#490=ORIENTED_EDGE('',*,*,#703,.F.);
#491=ORIENTED_EDGE('',*,*,#627,.T.);
#492=ORIENTED_EDGE('',*,*,#739,.F.);
#493=ORIENTED_EDGE('',*,*,#712,.T.);
#494=ORIENTED_EDGE('',*,*,#739,.T.);
#495=ORIENTED_EDGE('',*,*,#740,.F.);
#496=ORIENTED_EDGE('',*,*,#713,.T.);
#497=ORIENTED_EDGE('',*,*,#740,.T.);
#498=ORIENTED_EDGE('',*,*,#741,.F.);
#499=ORIENTED_EDGE('',*,*,#633,.F.);
#500=ORIENTED_EDGE('',*,*,#673,.T.);
#501=ORIENTED_EDGE('',*,*,#742,.T.);
#502=ORIENTED_EDGE('',*,*,#743,.F.);
#503=ORIENTED_EDGE('',*,*,#677,.T.);
#504=ORIENTED_EDGE('',*,*,#744,.F.);
#505=ORIENTED_EDGE('',*,*,#745,.F.);
#506=ORIENTED_EDGE('',*,*,#725,.F.);
#507=ORIENTED_EDGE('',*,*,#674,.T.);
#508=ORIENTED_EDGE('',*,*,#743,.T.);
#509=ORIENTED_EDGE('',*,*,#746,.F.);
#510=ORIENTED_EDGE('',*,*,#747,.F.);
#511=ORIENTED_EDGE('',*,*,#723,.T.);
#512=ORIENTED_EDGE('',*,*,#748,.T.);
#513=ORIENTED_EDGE('',*,*,#745,.T.);
#514=ORIENTED_EDGE('',*,*,#676,.F.);
#515=ORIENTED_EDGE('',*,*,#724,.T.);
#516=ORIENTED_EDGE('',*,*,#747,.T.);
#517=ORIENTED_EDGE('',*,*,#744,.T.);
#518=ORIENTED_EDGE('',*,*,#748,.F.);
#519=ORIENTED_EDGE('',*,*,#722,.T.);
#520=ORIENTED_EDGE('',*,*,#634,.F.);
#521=ORIENTED_EDGE('',*,*,#741,.T.);
#522=ORIENTED_EDGE('',*,*,#726,.T.);
#523=ORIENTED_EDGE('',*,*,#746,.T.);
#524=ORIENTED_EDGE('',*,*,#742,.F.);
#525=ORIENTED_EDGE('',*,*,#672,.T.);
#526=ORIENTED_EDGE('',*,*,#749,.T.);
#527=ORIENTED_EDGE('',*,*,#750,.T.);
#528=ORIENTED_EDGE('',*,*,#683,.F.);
#529=ORIENTED_EDGE('',*,*,#751,.F.);
#530=ORIENTED_EDGE('',*,*,#752,.T.);
#531=ORIENTED_EDGE('',*,*,#684,.T.);
#532=ORIENTED_EDGE('',*,*,#750,.F.);
#533=ORIENTED_EDGE('',*,*,#753,.F.);
#534=ORIENTED_EDGE('',*,*,#754,.T.);
#535=ORIENTED_EDGE('',*,*,#681,.T.);
#536=ORIENTED_EDGE('',*,*,#752,.F.);
#537=ORIENTED_EDGE('',*,*,#755,.F.);
#538=ORIENTED_EDGE('',*,*,#756,.T.);
#539=ORIENTED_EDGE('',*,*,#751,.T.);
#540=ORIENTED_EDGE('',*,*,#682,.F.);
#541=ORIENTED_EDGE('',*,*,#754,.F.);
#542=ORIENTED_EDGE('',*,*,#757,.T.);
#543=ORIENTED_EDGE('',*,*,#688,.F.);
#544=ORIENTED_EDGE('',*,*,#758,.T.);
#545=ORIENTED_EDGE('',*,*,#686,.F.);
#546=ORIENTED_EDGE('',*,*,#756,.F.);
#547=ORIENTED_EDGE('',*,*,#755,.T.);
#548=ORIENTED_EDGE('',*,*,#753,.T.);
#549=ORIENTED_EDGE('',*,*,#749,.F.);
#550=ORIENTED_EDGE('',*,*,#643,.T.);
#551=ORIENTED_EDGE('',*,*,#759,.T.);
#552=ORIENTED_EDGE('',*,*,#760,.T.);
#553=ORIENTED_EDGE('',*,*,#700,.F.);
#554=ORIENTED_EDGE('',*,*,#761,.T.);
#555=ORIENTED_EDGE('',*,*,#705,.F.);
#556=ORIENTED_EDGE('',*,*,#714,.F.);
#557=ORIENTED_EDGE('',*,*,#662,.T.);
#558=ORIENTED_EDGE('',*,*,#680,.T.);
#559=ORIENTED_EDGE('',*,*,#696,.T.);
#560=ORIENTED_EDGE('',*,*,#699,.F.);
#561=ORIENTED_EDGE('',*,*,#710,.T.);
#562=ORIENTED_EDGE('',*,*,#706,.F.);
#563=ORIENTED_EDGE('',*,*,#761,.F.);
#564=ORIENTED_EDGE('',*,*,#687,.T.);
#565=ORIENTED_EDGE('',*,*,#757,.F.);
#566=ORIENTED_EDGE('',*,*,#719,.T.);
#567=ORIENTED_EDGE('',*,*,#685,.T.);
#568=ORIENTED_EDGE('',*,*,#758,.F.);
#569=ORIENTED_EDGE('',*,*,#718,.T.);
#570=ORIENTED_EDGE('',*,*,#760,.F.);
#571=ORIENTED_EDGE('',*,*,#762,.T.);
#572=ORIENTED_EDGE('',*,*,#721,.T.);
#573=ORIENTED_EDGE('',*,*,#622,.T.);
#574=ORIENTED_EDGE('',*,*,#763,.T.);
#575=ORIENTED_EDGE('',*,*,#764,.T.);
#576=ORIENTED_EDGE('',*,*,#701,.F.);
#577=ORIENTED_EDGE('',*,*,#759,.F.);
#578=ORIENTED_EDGE('',*,*,#642,.T.);
#579=ORIENTED_EDGE('',*,*,#720,.T.);
#580=ORIENTED_EDGE('',*,*,#762,.F.);
#581=ORIENTED_EDGE('',*,*,#704,.F.);
#582=ORIENTED_EDGE('',*,*,#648,.T.);
#583=ORIENTED_EDGE('',*,*,#652,.T.);
#584=ORIENTED_EDGE('',*,*,#629,.F.);
#585=ORIENTED_EDGE('',*,*,#639,.F.);
#586=ORIENTED_EDGE('',*,*,#765,.F.);
#587=ORIENTED_EDGE('',*,*,#766,.T.);
#588=ORIENTED_EDGE('',*,*,#767,.T.);
#589=ORIENTED_EDGE('',*,*,#638,.T.);
#590=ORIENTED_EDGE('',*,*,#768,.F.);
#591=ORIENTED_EDGE('',*,*,#769,.F.);
#592=ORIENTED_EDGE('',*,*,#765,.T.);
#593=ORIENTED_EDGE('',*,*,#641,.T.);
#594=ORIENTED_EDGE('',*,*,#770,.F.);
#595=ORIENTED_EDGE('',*,*,#771,.F.);
#596=ORIENTED_EDGE('',*,*,#768,.T.);
#597=ORIENTED_EDGE('',*,*,#640,.F.);
#598=ORIENTED_EDGE('',*,*,#767,.F.);
#599=ORIENTED_EDGE('',*,*,#772,.T.);
#600=ORIENTED_EDGE('',*,*,#770,.T.);
#601=ORIENTED_EDGE('',*,*,#766,.F.);
#602=ORIENTED_EDGE('',*,*,#769,.T.);
#603=ORIENTED_EDGE('',*,*,#771,.T.);
#604=ORIENTED_EDGE('',*,*,#772,.F.);
#605=ORIENTED_EDGE('',*,*,#619,.T.);
#606=ORIENTED_EDGE('',*,*,#665,.T.);
#607=ORIENTED_EDGE('',*,*,#773,.T.);
#608=ORIENTED_EDGE('',*,*,#763,.F.);
#609=ORIENTED_EDGE('',*,*,#621,.F.);
#610=ORIENTED_EDGE('',*,*,#646,.T.);
#611=ORIENTED_EDGE('',*,*,#773,.F.);
#612=ORIENTED_EDGE('',*,*,#645,.T.);
#613=ORIENTED_EDGE('',*,*,#774,.F.);
#614=ORIENTED_EDGE('',*,*,#764,.F.);
#615=ORIENTED_EDGE('',*,*,#774,.T.);
#616=ORIENTED_EDGE('',*,*,#709,.T.);
#617=ORIENTED_EDGE('',*,*,#625,.F.);
#618=ORIENTED_EDGE('',*,*,#702,.T.);
#619=EDGE_CURVE('',#775,#775,#879,.T.);
#620=EDGE_CURVE('',#776,#777,#19,.T.);
#621=EDGE_CURVE('',#777,#778,#20,.T.);
#622=EDGE_CURVE('',#779,#778,#21,.T.);
#623=EDGE_CURVE('',#776,#779,#22,.T.);
#624=EDGE_CURVE('',#780,#781,#23,.T.);
#625=EDGE_CURVE('',#781,#782,#24,.T.);
#626=EDGE_CURVE('',#783,#782,#25,.T.);
#627=EDGE_CURVE('',#780,#783,#26,.T.);
#628=EDGE_CURVE('',#784,#785,#27,.T.);
#629=EDGE_CURVE('',#784,#786,#28,.T.);
#630=EDGE_CURVE('',#786,#787,#29,.T.);
#631=EDGE_CURVE('',#787,#788,#30,.T.);
#632=EDGE_CURVE('',#788,#789,#31,.T.);
#633=EDGE_CURVE('',#789,#790,#32,.T.);
#634=EDGE_CURVE('',#790,#791,#33,.T.);
#635=EDGE_CURVE('',#792,#791,#34,.T.);
#636=EDGE_CURVE('',#793,#792,#35,.T.);
#637=EDGE_CURVE('',#785,#793,#36,.T.);
#638=EDGE_CURVE('',#794,#795,#37,.T.);
#639=EDGE_CURVE('',#794,#796,#38,.T.);
#640=EDGE_CURVE('',#796,#797,#39,.T.);
#641=EDGE_CURVE('',#795,#797,#40,.T.);
#642=EDGE_CURVE('',#798,#799,#41,.T.);
#643=EDGE_CURVE('',#800,#798,#42,.T.);
#644=EDGE_CURVE('',#800,#801,#43,.T.);
#645=EDGE_CURVE('',#802,#801,#44,.T.);
#646=EDGE_CURVE('',#777,#802,#45,.T.);
#647=EDGE_CURVE('',#799,#776,#46,.T.);
#648=EDGE_CURVE('',#803,#804,#47,.T.);
#649=EDGE_CURVE('',#803,#805,#48,.T.);
#650=EDGE_CURVE('',#806,#805,#49,.T.);
#651=EDGE_CURVE('',#806,#804,#50,.T.);
#652=EDGE_CURVE('',#804,#786,#51,.T.);
#653=EDGE_CURVE('',#787,#806,#52,.T.);
#654=EDGE_CURVE('',#807,#808,#53,.T.);
#655=EDGE_CURVE('',#809,#808,#54,.T.);
#656=EDGE_CURVE('',#810,#809,#55,.T.);
#657=EDGE_CURVE('',#810,#807,#56,.T.);
#658=EDGE_CURVE('',#811,#789,#57,.T.);
#659=EDGE_CURVE('',#788,#812,#58,.T.);
#660=EDGE_CURVE('',#812,#811,#59,.T.);
#661=EDGE_CURVE('',#813,#807,#60,.T.);
#662=EDGE_CURVE('',#814,#813,#61,.T.);
#663=EDGE_CURVE('',#814,#815,#62,.T.);
#664=EDGE_CURVE('',#815,#808,#63,.T.);
#665=EDGE_CURVE('',#816,#816,#880,.T.);
#666=EDGE_CURVE('',#817,#818,#64,.T.);
#667=EDGE_CURVE('',#810,#817,#65,.T.);
#668=EDGE_CURVE('',#809,#818,#66,.T.);
#669=EDGE_CURVE('',#819,#811,#67,.T.);
#670=EDGE_CURVE('',#819,#792,#68,.T.);
#671=EDGE_CURVE('',#792,#820,#69,.T.);
#672=EDGE_CURVE('',#821,#820,#70,.T.);
#673=EDGE_CURVE('',#789,#821,#71,.T.);
#674=EDGE_CURVE('',#822,#823,#72,.T.);
#675=EDGE_CURVE('',#822,#824,#73,.T.);
#676=EDGE_CURVE('',#824,#825,#74,.T.);
#677=EDGE_CURVE('',#823,#825,#75,.T.);
#678=EDGE_CURVE('',#826,#817,#76,.T.);
#679=EDGE_CURVE('',#826,#827,#77,.T.);
#680=EDGE_CURVE('',#813,#827,#78,.T.);
#681=EDGE_CURVE('',#828,#829,#79,.T.);
#682=EDGE_CURVE('',#828,#830,#80,.T.);
#683=EDGE_CURVE('',#830,#831,#81,.T.);
#684=EDGE_CURVE('',#829,#831,#82,.T.);
#685=EDGE_CURVE('',#832,#833,#17,.T.);
#686=EDGE_CURVE('',#832,#833,#83,.T.);
#687=EDGE_CURVE('',#834,#835,#18,.T.);
#688=EDGE_CURVE('',#834,#835,#84,.T.);
#689=EDGE_CURVE('',#812,#836,#85,.T.);
#690=EDGE_CURVE('',#836,#819,#86,.T.);
#691=EDGE_CURVE('',#805,#785,#87,.T.);
#692=EDGE_CURVE('',#793,#836,#88,.T.);
#693=EDGE_CURVE('',#826,#837,#89,.T.);
#694=EDGE_CURVE('',#818,#837,#90,.T.);
#695=EDGE_CURVE('',#838,#839,#91,.T.);
#696=EDGE_CURVE('',#827,#839,#92,.T.);
#697=EDGE_CURVE('',#837,#838,#93,.T.);
#698=EDGE_CURVE('',#840,#841,#94,.T.);
#699=EDGE_CURVE('',#840,#842,#95,.T.);
#700=EDGE_CURVE('',#842,#843,#96,.T.);
#701=EDGE_CURVE('',#843,#844,#97,.T.);
#702=EDGE_CURVE('',#781,#844,#98,.T.);
#703=EDGE_CURVE('',#780,#841,#99,.T.);
#704=EDGE_CURVE('',#803,#784,#100,.T.);
#705=EDGE_CURVE('',#800,#845,#101,.T.);
#706=EDGE_CURVE('',#845,#846,#102,.T.);
#707=EDGE_CURVE('',#847,#846,#103,.T.);
#708=EDGE_CURVE('',#783,#847,#104,.T.);
#709=EDGE_CURVE('',#801,#782,#105,.T.);
#710=EDGE_CURVE('',#840,#846,#106,.T.);
#711=EDGE_CURVE('',#847,#841,#107,.T.);
#712=EDGE_CURVE('',#848,#848,#881,.T.);
#713=EDGE_CURVE('',#849,#849,#882,.T.);
#714=EDGE_CURVE('',#814,#839,#108,.T.);
#715=EDGE_CURVE('',#850,#838,#109,.T.);
#716=EDGE_CURVE('',#850,#851,#110,.T.);
#717=EDGE_CURVE('',#815,#851,#111,.T.);
#718=EDGE_CURVE('',#852,#852,#883,.T.);
#719=EDGE_CURVE('',#853,#853,#884,.T.);
#720=EDGE_CURVE('',#799,#854,#112,.T.);
#721=EDGE_CURVE('',#854,#779,#113,.T.);
#722=EDGE_CURVE('',#855,#791,#114,.T.);
#723=EDGE_CURVE('',#856,#855,#115,.T.);
#724=EDGE_CURVE('',#824,#856,#116,.T.);
#725=EDGE_CURVE('',#822,#857,#117,.T.);
#726=EDGE_CURVE('',#820,#857,#118,.T.);
#727=EDGE_CURVE('',#858,#859,#119,.T.);
#728=EDGE_CURVE('',#859,#860,#120,.T.);
#729=EDGE_CURVE('',#860,#861,#121,.T.);
#730=EDGE_CURVE('',#862,#861,#122,.T.);
#731=EDGE_CURVE('',#863,#862,#123,.T.);
#732=EDGE_CURVE('',#863,#858,#124,.T.);
#733=EDGE_CURVE('',#850,#860,#125,.T.);
#734=EDGE_CURVE('',#837,#861,#126,.T.);
#735=EDGE_CURVE('',#818,#862,#127,.T.);
#736=EDGE_CURVE('',#859,#851,#128,.T.);
#737=EDGE_CURVE('',#808,#858,#129,.T.);
#738=EDGE_CURVE('',#809,#863,#130,.T.);
#739=EDGE_CURVE('',#864,#864,#885,.T.);
#740=EDGE_CURVE('',#865,#865,#886,.T.);
#741=EDGE_CURVE('',#790,#866,#131,.T.);
#742=EDGE_CURVE('',#821,#867,#132,.T.);
#743=EDGE_CURVE('',#823,#867,#133,.T.);
#744=EDGE_CURVE('',#868,#825,#134,.T.);
#745=EDGE_CURVE('',#866,#868,#135,.T.);
#746=EDGE_CURVE('',#857,#867,#136,.T.);
#747=EDGE_CURVE('',#856,#868,#137,.T.);
#748=EDGE_CURVE('',#855,#866,#138,.T.);
#749=EDGE_CURVE('',#869,#870,#139,.T.);
#750=EDGE_CURVE('',#870,#831,#140,.T.);
#751=EDGE_CURVE('',#869,#830,#141,.T.);
#752=EDGE_CURVE('',#871,#829,#142,.T.);
#753=EDGE_CURVE('',#871,#870,#143,.T.);
#754=EDGE_CURVE('',#872,#828,#144,.T.);
#755=EDGE_CURVE('',#872,#871,#145,.T.);
#756=EDGE_CURVE('',#872,#869,#146,.T.);
#757=EDGE_CURVE('',#834,#835,#887,.T.);
#758=EDGE_CURVE('',#832,#833,#888,.T.);
#759=EDGE_CURVE('',#798,#873,#147,.T.);
#760=EDGE_CURVE('',#873,#843,#148,.T.);
#761=EDGE_CURVE('',#842,#845,#149,.T.);
#762=EDGE_CURVE('',#873,#854,#150,.T.);
#763=EDGE_CURVE('',#778,#874,#151,.T.);
#764=EDGE_CURVE('',#874,#844,#152,.T.);
#765=EDGE_CURVE('',#875,#794,#153,.T.);
#766=EDGE_CURVE('',#875,#876,#154,.T.);
#767=EDGE_CURVE('',#876,#796,#155,.T.);
#768=EDGE_CURVE('',#877,#795,#156,.T.);
#769=EDGE_CURVE('',#875,#877,#157,.T.);
#770=EDGE_CURVE('',#878,#797,#158,.T.);
#771=EDGE_CURVE('',#877,#878,#159,.T.);
#772=EDGE_CURVE('',#876,#878,#160,.T.);
#773=EDGE_CURVE('',#802,#874,#161,.T.);
#774=EDGE_CURVE('',#844,#801,#162,.T.);
#775=VERTEX_POINT('',#1561);
#776=VERTEX_POINT('',#1563);
#777=VERTEX_POINT('',#1564);
#778=VERTEX_POINT('',#1566);
#779=VERTEX_POINT('',#1568);
#780=VERTEX_POINT('',#1572);
#781=VERTEX_POINT('',#1573);
#782=VERTEX_POINT('',#1575);
#783=VERTEX_POINT('',#1577);
#784=VERTEX_POINT('',#1581);
#785=VERTEX_POINT('',#1582);
#786=VERTEX_POINT('',#1584);
#787=VERTEX_POINT('',#1586);
#788=VERTEX_POINT('',#1588);
#789=VERTEX_POINT('',#1590);
#790=VERTEX_POINT('',#1592);
#791=VERTEX_POINT('',#1594);
#792=VERTEX_POINT('',#1596);
#793=VERTEX_POINT('',#1598);
#794=VERTEX_POINT('',#1601);
#795=VERTEX_POINT('',#1602);
#796=VERTEX_POINT('',#1604);
#797=VERTEX_POINT('',#1606);
#798=VERTEX_POINT('',#1610);
#799=VERTEX_POINT('',#1611);
#800=VERTEX_POINT('',#1613);
#801=VERTEX_POINT('',#1615);
#802=VERTEX_POINT('',#1617);
#803=VERTEX_POINT('',#1622);
#804=VERTEX_POINT('',#1623);
#805=VERTEX_POINT('',#1625);
#806=VERTEX_POINT('',#1627);
#807=VERTEX_POINT('',#1634);
#808=VERTEX_POINT('',#1635);
#809=VERTEX_POINT('',#1637);
#810=VERTEX_POINT('',#1639);
#811=VERTEX_POINT('',#1643);
#812=VERTEX_POINT('',#1645);
#813=VERTEX_POINT('',#1649);
#814=VERTEX_POINT('',#1651);
#815=VERTEX_POINT('',#1653);
#816=VERTEX_POINT('',#1657);
#817=VERTEX_POINT('',#1659);
#818=VERTEX_POINT('',#1660);
#819=VERTEX_POINT('',#1664);
#820=VERTEX_POINT('',#1667);
#821=VERTEX_POINT('',#1669);
#822=VERTEX_POINT('',#1672);
#823=VERTEX_POINT('',#1673);
#824=VERTEX_POINT('',#1675);
#825=VERTEX_POINT('',#1677);
#826=VERTEX_POINT('',#1681);
#827=VERTEX_POINT('',#1683);
#828=VERTEX_POINT('',#1686);
#829=VERTEX_POINT('',#1687);
#830=VERTEX_POINT('',#1689);
#831=VERTEX_POINT('',#1691);
#832=VERTEX_POINT('',#1694);
#833=VERTEX_POINT('',#1695);
#834=VERTEX_POINT('',#1698);
#835=VERTEX_POINT('',#1699);
#836=VERTEX_POINT('',#1703);
#837=VERTEX_POINT('',#1711);
#838=VERTEX_POINT('',#1715);
#839=VERTEX_POINT('',#1716);
#840=VERTEX_POINT('',#1721);
#841=VERTEX_POINT('',#1722);
#842=VERTEX_POINT('',#1724);
#843=VERTEX_POINT('',#1726);
#844=VERTEX_POINT('',#1728);
#845=VERTEX_POINT('',#1735);
#846=VERTEX_POINT('',#1737);
#847=VERTEX_POINT('',#1739);
#848=VERTEX_POINT('',#1746);
#849=VERTEX_POINT('',#1748);
#850=VERTEX_POINT('',#1751);
#851=VERTEX_POINT('',#1753);
#852=VERTEX_POINT('',#1756);
#853=VERTEX_POINT('',#1758);
#854=VERTEX_POINT('',#1761);
#855=VERTEX_POINT('',#1765);
#856=VERTEX_POINT('',#1767);
#857=VERTEX_POINT('',#1770);
#858=VERTEX_POINT('',#1774);
#859=VERTEX_POINT('',#1775);
#860=VERTEX_POINT('',#1777);
#861=VERTEX_POINT('',#1779);
#862=VERTEX_POINT('',#1781);
#863=VERTEX_POINT('',#1783);
#864=VERTEX_POINT('',#1800);
#865=VERTEX_POINT('',#1804);
#866=VERTEX_POINT('',#1808);
#867=VERTEX_POINT('',#1810);
#868=VERTEX_POINT('',#1813);
#869=VERTEX_POINT('',#1825);
#870=VERTEX_POINT('',#1826);
#871=VERTEX_POINT('',#1831);
#872=VERTEX_POINT('',#1835);
#873=VERTEX_POINT('',#1845);
#874=VERTEX_POINT('',#1855);
#875=VERTEX_POINT('',#1861);
#876=VERTEX_POINT('',#1863);
#877=VERTEX_POINT('',#1867);
#878=VERTEX_POINT('',#1871);
#879=CIRCLE('',#1188,0.00608);
#880=CIRCLE('',#1198,0.00608);
#881=CIRCLE('',#1211,0.0013);
#882=CIRCLE('',#1212,0.0013);
#883=CIRCLE('',#1213,0.0013);
#884=CIRCLE('',#1214,0.0013);
#885=CIRCLE('',#1226,0.0013);
#886=CIRCLE('',#1229,0.0013);
#887=CIRCLE('',#1242,0.0013);
#888=CIRCLE('',#1244,0.0013);
#889=EDGE_LOOP('',(#307));
#890=EDGE_LOOP('',(#308,#309,#310,#311));
#891=EDGE_LOOP('',(#312,#313,#314,#315));
#892=EDGE_LOOP('',(#316,#317,#318,#319,#320,#321,#322,#323,#324,#325));
#893=EDGE_LOOP('',(#326,#327,#328,#329));
#894=EDGE_LOOP('',(#330,#331,#332,#333,#334,#335,#336));
#895=EDGE_LOOP('',(#337,#338,#339,#340));
#896=EDGE_LOOP('',(#341,#342,#343,#344));
#897=EDGE_LOOP('',(#345,#346,#347,#348));
#898=EDGE_LOOP('',(#349,#350,#351,#352));
#899=EDGE_LOOP('',(#353,#354,#355,#356,#357));
#900=EDGE_LOOP('',(#358));
#901=EDGE_LOOP('',(#359,#360,#361,#362));
#902=EDGE_LOOP('',(#363,#364,#365,#366,#367,#368));
#903=EDGE_LOOP('',(#369,#370,#371,#372));
#904=EDGE_LOOP('',(#373,#374,#375,#376,#377,#378));
#905=EDGE_LOOP('',(#379,#380,#381,#382));
#906=EDGE_LOOP('',(#383,#384));
#907=EDGE_LOOP('',(#385,#386));
#908=EDGE_LOOP('',(#387,#388,#389,#390));
#909=EDGE_LOOP('',(#391,#392,#393,#394,#395,#396,#397,#398));
#910=EDGE_LOOP('',(#399,#400,#401,#402));
#911=EDGE_LOOP('',(#403,#404,#405,#406));
#912=EDGE_LOOP('',(#407,#408,#409,#410,#411));
#913=EDGE_LOOP('',(#412,#413,#414,#415,#416,#417,#418));
#914=EDGE_LOOP('',(#419,#420,#421,#422));
#915=EDGE_LOOP('',(#423,#424,#425,#426,#427,#428,#429));
#916=EDGE_LOOP('',(#430,#431,#432,#433));
#917=EDGE_LOOP('',(#434));
#918=EDGE_LOOP('',(#435));
#919=EDGE_LOOP('',(#436,#437,#438,#439,#440,#441));
#920=EDGE_LOOP('',(#442));
#921=EDGE_LOOP('',(#443));
#922=EDGE_LOOP('',(#444,#445,#446,#447));
#923=EDGE_LOOP('',(#448,#449,#450,#451,#452,#453,#454,#455));
#924=EDGE_LOOP('',(#456,#457,#458,#459,#460,#461));
#925=EDGE_LOOP('',(#462,#463,#464,#465,#466));
#926=EDGE_LOOP('',(#467,#468,#469,#470));
#927=EDGE_LOOP('',(#471,#472,#473,#474,#475));
#928=EDGE_LOOP('',(#476,#477,#478,#479));
#929=EDGE_LOOP('',(#480,#481,#482,#483));
#930=EDGE_LOOP('',(#484,#485,#486,#487));
#931=EDGE_LOOP('',(#488,#489,#490,#491));
#932=EDGE_LOOP('',(#492));
#933=EDGE_LOOP('',(#493));
#934=EDGE_LOOP('',(#494));
#935=EDGE_LOOP('',(#495));
#936=EDGE_LOOP('',(#496));
#937=EDGE_LOOP('',(#497));
#938=EDGE_LOOP('',(#498,#499,#500,#501,#502,#503,#504,#505));
#939=EDGE_LOOP('',(#506,#507,#508,#509));
#940=EDGE_LOOP('',(#510,#511,#512,#513));
#941=EDGE_LOOP('',(#514,#515,#516,#517));
#942=EDGE_LOOP('',(#518,#519,#520,#521));
#943=EDGE_LOOP('',(#522,#523,#524,#525));
#944=EDGE_LOOP('',(#526,#527,#528,#529));
#945=EDGE_LOOP('',(#530,#531,#532,#533));
#946=EDGE_LOOP('',(#534,#535,#536,#537));
#947=EDGE_LOOP('',(#538,#539,#540,#541));
#948=EDGE_LOOP('',(#542,#543));
#949=EDGE_LOOP('',(#544,#545));
#950=EDGE_LOOP('',(#546,#547,#548,#549));
#951=EDGE_LOOP('',(#550,#551,#552,#553,#554,#555));
#952=EDGE_LOOP('',(#556,#557,#558,#559));
#953=EDGE_LOOP('',(#560,#561,#562,#563));
#954=EDGE_LOOP('',(#564,#565));
#955=EDGE_LOOP('',(#566));
#956=EDGE_LOOP('',(#567,#568));
#957=EDGE_LOOP('',(#569));
#958=EDGE_LOOP('',(#570,#571,#572,#573,#574,#575,#576));
#959=EDGE_LOOP('',(#577,#578,#579,#580));
#960=EDGE_LOOP('',(#581,#582,#583,#584));
#961=EDGE_LOOP('',(#585,#586,#587,#588));
#962=EDGE_LOOP('',(#589,#590,#591,#592));
#963=EDGE_LOOP('',(#593,#594,#595,#596));
#964=EDGE_LOOP('',(#597,#598,#599,#600));
#965=EDGE_LOOP('',(#601,#602,#603,#604));
#966=EDGE_LOOP('',(#605));
#967=EDGE_LOOP('',(#606));
#968=EDGE_LOOP('',(#607,#608,#609,#610));
#969=EDGE_LOOP('',(#611,#612,#613,#614));
#970=EDGE_LOOP('',(#615,#616,#617,#618));
#971=FACE_BOUND('',#889,.T.);
#972=FACE_BOUND('',#890,.T.);
#973=FACE_BOUND('',#891,.T.);
#974=FACE_BOUND('',#892,.T.);
#975=FACE_BOUND('',#893,.T.);
#976=FACE_BOUND('',#894,.T.);
#977=FACE_BOUND('',#895,.T.);
#978=FACE_BOUND('',#896,.T.);
#979=FACE_BOUND('',#897,.T.);
#980=FACE_BOUND('',#898,.T.);
#981=FACE_BOUND('',#899,.T.);
#982=FACE_BOUND('',#900,.T.);
#983=FACE_BOUND('',#901,.T.);
#984=FACE_BOUND('',#902,.T.);
#985=FACE_BOUND('',#903,.T.);
#986=FACE_BOUND('',#904,.T.);
#987=FACE_BOUND('',#905,.T.);
#988=FACE_BOUND('',#906,.T.);
#989=FACE_BOUND('',#907,.T.);
#990=FACE_BOUND('',#908,.T.);
#991=FACE_BOUND('',#909,.T.);
#992=FACE_BOUND('',#910,.T.);
#993=FACE_BOUND('',#911,.T.);
#994=FACE_BOUND('',#912,.T.);
#995=FACE_BOUND('',#913,.T.);
#996=FACE_BOUND('',#914,.T.);
#997=FACE_BOUND('',#915,.T.);
#998=FACE_BOUND('',#916,.T.);
#999=FACE_BOUND('',#917,.T.);
#1000=FACE_BOUND('',#918,.T.);
#1001=FACE_BOUND('',#919,.T.);
#1002=FACE_BOUND('',#920,.T.);
#1003=FACE_BOUND('',#921,.T.);
#1004=FACE_BOUND('',#922,.T.);
#1005=FACE_BOUND('',#923,.T.);
#1006=FACE_BOUND('',#924,.T.);
#1007=FACE_BOUND('',#925,.T.);
#1008=FACE_BOUND('',#926,.T.);
#1009=FACE_BOUND('',#927,.T.);
#1010=FACE_BOUND('',#928,.T.);
#1011=FACE_BOUND('',#929,.T.);
#1012=FACE_BOUND('',#930,.T.);
#1013=FACE_BOUND('',#931,.T.);
#1014=FACE_BOUND('',#932,.T.);
#1015=FACE_BOUND('',#933,.T.);
#1016=FACE_BOUND('',#934,.T.);
#1017=FACE_BOUND('',#935,.T.);
#1018=FACE_BOUND('',#936,.T.);
#1019=FACE_BOUND('',#937,.T.);
#1020=FACE_BOUND('',#938,.T.);
#1021=FACE_BOUND('',#939,.T.);
#1022=FACE_BOUND('',#940,.T.);
#1023=FACE_BOUND('',#941,.T.);
#1024=FACE_BOUND('',#942,.T.);
#1025=FACE_BOUND('',#943,.T.);
#1026=FACE_BOUND('',#944,.T.);
#1027=FACE_BOUND('',#945,.T.);
#1028=FACE_BOUND('',#946,.T.);
#1029=FACE_BOUND('',#947,.T.);
#1030=FACE_BOUND('',#948,.T.);
#1031=FACE_BOUND('',#949,.T.);
#1032=FACE_BOUND('',#950,.T.);
#1033=FACE_BOUND('',#951,.T.);
#1034=FACE_BOUND('',#952,.T.);
#1035=FACE_BOUND('',#953,.T.);
#1036=FACE_BOUND('',#954,.T.);
#1037=FACE_BOUND('',#955,.T.);
#1038=FACE_BOUND('',#956,.T.);
#1039=FACE_BOUND('',#957,.T.);
#1040=FACE_BOUND('',#958,.T.);
#1041=FACE_BOUND('',#959,.T.);
#1042=FACE_BOUND('',#960,.T.);
#1043=FACE_BOUND('',#961,.T.);
#1044=FACE_BOUND('',#962,.T.);
#1045=FACE_BOUND('',#963,.T.);
#1046=FACE_BOUND('',#964,.T.);
#1047=FACE_BOUND('',#965,.T.);
#1048=FACE_BOUND('',#966,.T.);
#1049=FACE_BOUND('',#967,.T.);
#1050=FACE_BOUND('',#968,.T.);
#1051=FACE_BOUND('',#969,.T.);
#1052=FACE_BOUND('',#970,.T.);
#1053=PLANE('',#1187);
#1054=PLANE('',#1189);
#1055=PLANE('',#1190);
#1056=PLANE('',#1191);
#1057=PLANE('',#1192);
#1058=PLANE('',#1193);
#1059=PLANE('',#1194);
#1060=PLANE('',#1195);
#1061=PLANE('',#1196);
#1062=PLANE('',#1197);
#1063=PLANE('',#1199);
#1064=PLANE('',#1202);
#1065=PLANE('',#1203);
#1066=PLANE('',#1204);
#1067=PLANE('',#1205);
#1068=PLANE('',#1206);
#1069=PLANE('',#1207);
#1070=PLANE('',#1208);
#1071=PLANE('',#1209);
#1072=PLANE('',#1210);
#1073=PLANE('',#1215);
#1074=PLANE('',#1216);
#1075=PLANE('',#1217);
#1076=PLANE('',#1218);
#1077=PLANE('',#1219);
#1078=PLANE('',#1220);
#1079=PLANE('',#1221);
#1080=PLANE('',#1222);
#1081=PLANE('',#1223);
#1082=PLANE('',#1224);
#1083=PLANE('',#1227);
#1084=PLANE('',#1230);
#1085=PLANE('',#1231);
#1086=PLANE('',#1232);
#1087=PLANE('',#1233);
#1088=PLANE('',#1234);
#1089=PLANE('',#1235);
#1090=PLANE('',#1236);
#1091=PLANE('',#1237);
#1092=PLANE('',#1238);
#1093=PLANE('',#1239);
#1094=PLANE('',#1240);
#1095=PLANE('',#1241);
#1096=PLANE('',#1243);
#1097=PLANE('',#1245);
#1098=PLANE('',#1246);
#1099=PLANE('',#1247);
#1100=PLANE('',#1250);
#1101=PLANE('',#1251);
#1102=PLANE('',#1252);
#1103=PLANE('',#1253);
#1104=PLANE('',#1254);
#1105=PLANE('',#1255);
#1106=PLANE('',#1256);
#1107=PLANE('',#1257);
#1108=PLANE('',#1259);
#1109=PLANE('',#1260);
#1110=PLANE('',#1261);
#1111=ADVANCED_FACE('',(#971,#972),#1053,.T.);
#1112=ADVANCED_FACE('',(#973),#1054,.F.);
#1113=ADVANCED_FACE('',(#974,#975),#1055,.T.);
#1114=ADVANCED_FACE('',(#976),#1056,.F.);
#1115=ADVANCED_FACE('',(#977),#1057,.F.);
#1116=ADVANCED_FACE('',(#978),#1058,.F.);
#1117=ADVANCED_FACE('',(#979),#1059,.T.);
#1118=ADVANCED_FACE('',(#980),#1060,.F.);
#1119=ADVANCED_FACE('',(#981),#1061,.F.);
#1120=ADVANCED_FACE('',(#982,#983,#984,#985),#1062,.F.);
#1121=ADVANCED_FACE('',(#986,#987,#988,#989),#1063,.T.);
#1122=ADVANCED_FACE('',(#990),#1064,.F.);
#1123=ADVANCED_FACE('',(#991),#1065,.T.);
#1124=ADVANCED_FACE('',(#992),#1066,.T.);
#1125=ADVANCED_FACE('',(#993),#1067,.T.);
#1126=ADVANCED_FACE('',(#994),#1068,.F.);
#1127=ADVANCED_FACE('',(#995),#1069,.T.);
#1128=ADVANCED_FACE('',(#996),#1070,.F.);
#1129=ADVANCED_FACE('',(#997),#1071,.T.);
#1130=ADVANCED_FACE('',(#998,#999,#1000,#1001,#1002,#1003),#1072,.F.);
#1131=ADVANCED_FACE('',(#1004),#1073,.F.);
#1132=ADVANCED_FACE('',(#1005),#1074,.F.);
#1133=ADVANCED_FACE('',(#1006),#1075,.T.);
#1134=ADVANCED_FACE('',(#1007),#1076,.F.);
#1135=ADVANCED_FACE('',(#1008),#1077,.T.);
#1136=ADVANCED_FACE('',(#1009),#1078,.F.);
#1137=ADVANCED_FACE('',(#1010),#1079,.F.);
#1138=ADVANCED_FACE('',(#1011),#1080,.F.);
#1139=ADVANCED_FACE('',(#1012),#1081,.T.);
#1140=ADVANCED_FACE('',(#1013),#1082,.F.);
#1141=ADVANCED_FACE('',(#1014,#1015),#12,.F.);
#1142=ADVANCED_FACE('',(#1016),#1083,.T.);
#1143=ADVANCED_FACE('',(#1017,#1018),#13,.F.);
#1144=ADVANCED_FACE('',(#1019),#1084,.T.);
#1145=ADVANCED_FACE('',(#1020),#1085,.T.);
#1146=ADVANCED_FACE('',(#1021),#1086,.T.);
#1147=ADVANCED_FACE('',(#1022),#1087,.F.);
#1148=ADVANCED_FACE('',(#1023),#1088,.F.);
#1149=ADVANCED_FACE('',(#1024),#1089,.F.);
#1150=ADVANCED_FACE('',(#1025),#1090,.F.);
#1151=ADVANCED_FACE('',(#1026),#1091,.T.);
#1152=ADVANCED_FACE('',(#1027),#1092,.F.);
#1153=ADVANCED_FACE('',(#1028),#1093,.F.);
#1154=ADVANCED_FACE('',(#1029),#1094,.T.);
#1155=ADVANCED_FACE('',(#1030),#1095,.T.);
#1156=ADVANCED_FACE('',(#1031),#1096,.T.);
#1157=ADVANCED_FACE('',(#1032,#1033),#1097,.F.);
#1158=ADVANCED_FACE('',(#1034),#1098,.T.);
#1159=ADVANCED_FACE('',(#1035),#1099,.F.);
#1160=ADVANCED_FACE('',(#1036,#1037),#14,.F.);
#1161=ADVANCED_FACE('',(#1038,#1039),#15,.F.);
#1162=ADVANCED_FACE('',(#1040),#1100,.F.);
#1163=ADVANCED_FACE('',(#1041),#1101,.F.);
#1164=ADVANCED_FACE('',(#1042),#1102,.T.);
#1165=ADVANCED_FACE('',(#1043),#1103,.T.);
#1166=ADVANCED_FACE('',(#1044),#1104,.F.);
#1167=ADVANCED_FACE('',(#1045),#1105,.F.);
#1168=ADVANCED_FACE('',(#1046),#1106,.T.);
#1169=ADVANCED_FACE('',(#1047),#1107,.T.);
#1170=ADVANCED_FACE('',(#1048,#1049),#16,.F.);
#1171=ADVANCED_FACE('',(#1050),#1108,.T.);
#1172=ADVANCED_FACE('',(#1051),#1109,.F.);
#1173=ADVANCED_FACE('',(#1052),#1110,.T.);
#1174=CLOSED_SHELL('',(#1111,#1112,#1113,#1114,#1115,#1116,#1117,#1118,
#1119,#1120,#1121,#1122,#1123,#1124,#1125,#1126,#1127,#1128,#1129,#1130,
#1131,#1132,#1133,#1134,#1135,#1136,#1137,#1138,#1139,#1140,#1141,#1142,
#1143,#1144,#1145,#1146,#1147,#1148,#1149,#1150,#1151,#1152,#1153,#1154,
#1155,#1156,#1157,#1158,#1159,#1160,#1161,#1162,#1163,#1164,#1165,#1166,
#1167,#1168,#1169,#1170,#1171,#1172,#1173));
#1175=STYLED_ITEM('',(#1176),#1183);
#1176=PRESENTATION_STYLE_ASSIGNMENT((#1177));
#1177=SURFACE_STYLE_USAGE(.BOTH.,#1178);
#1178=SURFACE_SIDE_STYLE('',(#1179));
#1179=SURFACE_STYLE_FILL_AREA(#1180);
#1180=FILL_AREA_STYLE('',(#1181));
#1181=FILL_AREA_STYLE_COLOUR('',#1182);
#1182=COLOUR_RGB('',0.537254901960784,0.854901960784314,0.827450980392157);
#1183=MANIFOLD_SOLID_BREP('Front Cover',#1174);
#1184=SHAPE_DEFINITION_REPRESENTATION(#1888,#1185);
#1185=SHAPE_REPRESENTATION('Front Cover',(#1186),#1883);
#1186=AXIS2_PLACEMENT_3D('',#1558,#1262,#1263);
#1187=AXIS2_PLACEMENT_3D('',#1559,#1264,#1265);
#1188=AXIS2_PLACEMENT_3D('',#1560,#1266,#1267);
#1189=AXIS2_PLACEMENT_3D('',#1570,#1272,#1273);
#1190=AXIS2_PLACEMENT_3D('',#1579,#1278,#1279);
#1191=AXIS2_PLACEMENT_3D('',#1608,#1294,#1295);
#1192=AXIS2_PLACEMENT_3D('',#1620,#1302,#1303);
#1193=AXIS2_PLACEMENT_3D('',#1629,#1308,#1309);
#1194=AXIS2_PLACEMENT_3D('',#1632,#1312,#1313);
#1195=AXIS2_PLACEMENT_3D('',#1641,#1318,#1319);
#1196=AXIS2_PLACEMENT_3D('',#1647,#1323,#1324);
#1197=AXIS2_PLACEMENT_3D('',#1655,#1329,#1330);
#1198=AXIS2_PLACEMENT_3D('',#1656,#1331,#1332);
#1199=AXIS2_PLACEMENT_3D('',#1679,#1345,#1346);
#1200=AXIS2_PLACEMENT_3D('',#1693,#1354,#1355);
#1201=AXIS2_PLACEMENT_3D('',#1697,#1357,#1358);
#1202=AXIS2_PLACEMENT_3D('',#1701,#1360,#1361);
#1203=AXIS2_PLACEMENT_3D('',#1705,#1364,#1365);
#1204=AXIS2_PLACEMENT_3D('',#1708,#1368,#1369);
#1205=AXIS2_PLACEMENT_3D('',#1709,#1370,#1371);
#1206=AXIS2_PLACEMENT_3D('',#1713,#1374,#1375);
#1207=AXIS2_PLACEMENT_3D('',#1719,#1379,#1380);
#1208=AXIS2_PLACEMENT_3D('',#1731,#1387,#1388);
#1209=AXIS2_PLACEMENT_3D('',#1733,#1390,#1391);
#1210=AXIS2_PLACEMENT_3D('',#1742,#1397,#1398);
#1211=AXIS2_PLACEMENT_3D('',#1745,#1401,#1402);
#1212=AXIS2_PLACEMENT_3D('',#1747,#1403,#1404);
#1213=AXIS2_PLACEMENT_3D('',#1755,#1409,#1410);
#1214=AXIS2_PLACEMENT_3D('',#1757,#1411,#1412);
#1215=AXIS2_PLACEMENT_3D('',#1759,#1413,#1414);
#1216=AXIS2_PLACEMENT_3D('',#1763,#1417,#1418);
#1217=AXIS2_PLACEMENT_3D('',#1772,#1424,#1425);
#1218=AXIS2_PLACEMENT_3D('',#1785,#1432,#1433);
#1219=AXIS2_PLACEMENT_3D('',#1788,#1436,#1437);
#1220=AXIS2_PLACEMENT_3D('',#1790,#1439,#1440);
#1221=AXIS2_PLACEMENT_3D('',#1793,#1443,#1444);
#1222=AXIS2_PLACEMENT_3D('',#1795,#1446,#1447);
#1223=AXIS2_PLACEMENT_3D('',#1796,#1448,#1449);
#1224=AXIS2_PLACEMENT_3D('',#1797,#1450,#1451);
#1225=AXIS2_PLACEMENT_3D('',#1798,#1452,#1453);
#1226=AXIS2_PLACEMENT_3D('',#1799,#1454,#1455);
#1227=AXIS2_PLACEMENT_3D('',#1801,#1456,#1457);
#1228=AXIS2_PLACEMENT_3D('',#1802,#1458,#1459);
#1229=AXIS2_PLACEMENT_3D('',#1803,#1460,#1461);
#1230=AXIS2_PLACEMENT_3D('',#1805,#1462,#1463);
#1231=AXIS2_PLACEMENT_3D('',#1806,#1464,#1465);
#1232=AXIS2_PLACEMENT_3D('',#1815,#1471,#1472);
#1233=AXIS2_PLACEMENT_3D('',#1817,#1474,#1475);
#1234=AXIS2_PLACEMENT_3D('',#1820,#1478,#1479);
#1235=AXIS2_PLACEMENT_3D('',#1821,#1480,#1481);
#1236=AXIS2_PLACEMENT_3D('',#1822,#1482,#1483);
#1237=AXIS2_PLACEMENT_3D('',#1823,#1484,#1485);
#1238=AXIS2_PLACEMENT_3D('',#1829,#1489,#1490);
#1239=AXIS2_PLACEMENT_3D('',#1833,#1493,#1494);
#1240=AXIS2_PLACEMENT_3D('',#1837,#1497,#1498);
#1241=AXIS2_PLACEMENT_3D('',#1839,#1500,#1501);
#1242=AXIS2_PLACEMENT_3D('',#1840,#1502,#1503);
#1243=AXIS2_PLACEMENT_3D('',#1841,#1504,#1505);
#1244=AXIS2_PLACEMENT_3D('',#1842,#1506,#1507);
#1245=AXIS2_PLACEMENT_3D('',#1843,#1508,#1509);
#1246=AXIS2_PLACEMENT_3D('',#1848,#1513,#1514);
#1247=AXIS2_PLACEMENT_3D('',#1849,#1515,#1516);
#1248=AXIS2_PLACEMENT_3D('',#1850,#1517,#1518);
#1249=AXIS2_PLACEMENT_3D('',#1851,#1519,#1520);
#1250=AXIS2_PLACEMENT_3D('',#1852,#1521,#1522);
#1251=AXIS2_PLACEMENT_3D('',#1857,#1526,#1527);
#1252=AXIS2_PLACEMENT_3D('',#1858,#1528,#1529);
#1253=AXIS2_PLACEMENT_3D('',#1859,#1530,#1531);
#1254=AXIS2_PLACEMENT_3D('',#1865,#1535,#1536);
#1255=AXIS2_PLACEMENT_3D('',#1869,#1539,#1540);
#1256=AXIS2_PLACEMENT_3D('',#1873,#1543,#1544);
#1257=AXIS2_PLACEMENT_3D('',#1875,#1546,#1547);
#1258=AXIS2_PLACEMENT_3D('',#1876,#1548,#1549);
#1259=AXIS2_PLACEMENT_3D('',#1877,#1550,#1551);
#1260=AXIS2_PLACEMENT_3D('',#1879,#1553,#1554);
#1261=AXIS2_PLACEMENT_3D('',#1881,#1556,#1557);
#1262=DIRECTION('',(0.,0.,1.));
#1263=DIRECTION('',(1.,0.,0.));
#1264=DIRECTION('',(0.,1.,0.));
#1265=DIRECTION('',(0.,0.,1.));
#1266=DIRECTION('',(0.,1.,0.));
#1267=DIRECTION('',(0.,0.,1.));
#1268=DIRECTION('',(0.,0.,-1.));
#1269=DIRECTION('',(-1.,0.,-3.65889230389563E-16));
#1270=DIRECTION('',(0.,0.,-1.));
#1271=DIRECTION('',(-1.,0.,0.));
#1272=DIRECTION('',(0.,0.944200181445777,-0.329372156318294));
#1273=DIRECTION('',(0.,0.329372156318294,0.944200181445777));
#1274=DIRECTION('',(0.0548128322652622,-0.328876993591574,-0.942780714962513));
#1275=DIRECTION('',(1.,-7.33443709935359E-16,-1.41449858344676E-15));
#1276=DIRECTION('',(-0.0548128322652623,-0.328876993591574,-0.942780714962513));
#1277=DIRECTION('',(1.,0.,0.));
#1278=DIRECTION('',(0.,-0.939692620785909,0.342020143325668));
#1279=DIRECTION('',(1.,0.,0.));
#1280=DIRECTION('',(-0.323615577118184,-0.323615577118185,-0.889126490715989));
#1281=DIRECTION('',(-1.,0.,0.));
#1282=DIRECTION('',(0.323615577118185,-0.323615577118185,-0.889126490715988));
#1283=DIRECTION('',(1.,0.,0.));
#1284=DIRECTION('',(0.,-0.342020143325668,-0.939692620785909));
#1285=DIRECTION('',(0.,-0.342020143325668,-0.939692620785909));
#1286=DIRECTION('',(1.,0.,0.));
#1287=DIRECTION('',(0.,-0.342020143325668,-0.939692620785909));
#1288=DIRECTION('',(0.,-0.342020143325668,-0.939692620785909));
#1289=DIRECTION('',(-1.,0.,0.));
#1290=DIRECTION('',(0.,0.342020143325668,0.939692620785909));
#1291=DIRECTION('',(-1.,0.,0.));
#1292=DIRECTION('',(0.,0.342020143325668,0.939692620785909));
#1293=DIRECTION('',(-1.,0.,0.));
#1294=DIRECTION('',(0.707106781186548,-0.707106781186547,0.));
#1295=DIRECTION('',(0.707106781186547,0.707106781186548,0.));
#1296=DIRECTION('',(0.,0.,-1.));
#1297=DIRECTION('',(-0.66353810784447,-0.66353810784447,-0.345592764502328));
#1298=DIRECTION('',(0.,0.,-1.));
#1299=DIRECTION('',(0.123091490979333,0.123091490979333,0.984731927834662));
#1300=DIRECTION('',(0.31283963709622,0.31283963709622,0.896806959675832));
#1301=DIRECTION('',(-0.323615577118184,-0.323615577118185,-0.889126490715989));
#1302=DIRECTION('',(0.,-0.461934418836969,0.88691408416698));
#1303=DIRECTION('',(0.,-0.88691408416698,-0.461934418836969));
#1304=DIRECTION('',(-1.,0.,0.));
#1305=DIRECTION('',(-0.66353810784447,-0.66353810784447,-0.345592764502328));
#1306=DIRECTION('',(1.,0.,0.));
#1307=DIRECTION('',(-0.66353810784447,0.663538107844469,0.345592764502328));
#1308=DIRECTION('',(-0.707106781186547,-0.707106781186548,0.));
#1309=DIRECTION('',(0.707106781186548,-0.707106781186547,0.));
#1310=DIRECTION('',(0.,0.,-1.));
#1311=DIRECTION('',(0.,0.,1.));
#1312=DIRECTION('',(-0.707106781186547,-0.707106781186548,0.));
#1313=DIRECTION('',(0.707106781186548,-0.707106781186547,0.));
#1314=DIRECTION('',(0.,0.,-1.));
#1315=DIRECTION('',(-0.31283963709622,0.31283963709622,0.896806959675832));
#1316=DIRECTION('',(0.,0.,-1.));
#1317=DIRECTION('',(-0.66353810784447,0.663538107844469,0.345592764502328));
#1318=DIRECTION('',(-1.,0.,0.));
#1319=DIRECTION('',(0.,0.,1.));
#1320=DIRECTION('',(0.,0.,-1.));
#1321=DIRECTION('',(0.,0.,1.));
#1322=DIRECTION('',(0.,-1.,0.));
#1323=DIRECTION('',(0.986393923832144,0.164398987305357,0.));
#1324=DIRECTION('',(-0.164398987305357,0.986393923832144,0.));
#1325=DIRECTION('',(0.146230050027022,-0.877380300162134,-0.456968906334445));
#1326=DIRECTION('',(0.164398987305357,-0.986393923832144,0.));
#1327=DIRECTION('',(0.,0.,-1.));
#1328=DIRECTION('',(0.0995037190209989,-0.597022314125995,-0.79602975216799));
#1329=DIRECTION('',(0.,1.,0.));
#1330=DIRECTION('',(0.,0.,1.));
#1331=DIRECTION('',(0.,-1.,0.));
#1332=DIRECTION('',(0.,0.,-1.));
#1333=DIRECTION('',(0.,0.,-1.));
#1334=DIRECTION('',(1.,0.,0.));
#1335=DIRECTION('',(1.,0.,0.));
#1336=DIRECTION('',(-1.,0.,0.));
#1337=DIRECTION('',(0.,0.,-1.));
#1338=DIRECTION('',(0.,0.,-1.));
#1339=DIRECTION('',(1.,0.,0.));
#1340=DIRECTION('',(0.,0.,-1.));
#1341=DIRECTION('',(-1.,0.,0.));
#1342=DIRECTION('',(0.,0.,-1.));
#1343=DIRECTION('',(-1.,0.,0.));
#1344=DIRECTION('',(0.,0.,-1.));
#1345=DIRECTION('',(0.,-0.461934418836969,0.88691408416698));
#1346=DIRECTION('',(0.,-0.88691408416698,-0.461934418836969));
#1347=DIRECTION('',(-0.66353810784447,-0.66353810784447,-0.345592764502328));
#1348=DIRECTION('',(0.146230050027022,0.877380300162134,0.456968906334445));
#1349=DIRECTION('',(1.,0.,0.));
#1350=DIRECTION('',(-1.86529406019011E-16,-0.88691408416698,-0.461934418836968));
#1351=DIRECTION('',(1.,0.,0.));
#1352=DIRECTION('',(-1.86529406019011E-16,-0.88691408416698,-0.461934418836968));
#1353=DIRECTION('',(1.,0.,0.));
#1354=DIRECTION('',(0.,-0.461934418836969,0.88691408416698));
#1355=DIRECTION('',(0.,0.88691408416698,0.461934418836968));
#1356=DIRECTION('',(-1.,0.,0.));
#1357=DIRECTION('',(0.,-0.461934418836969,0.88691408416698));
#1358=DIRECTION('',(0.,0.88691408416698,0.461934418836968));
#1359=DIRECTION('',(-1.,0.,0.));
#1360=DIRECTION('',(0.,0.,1.));
#1361=DIRECTION('',(1.,0.,0.));
#1362=DIRECTION('',(1.,0.,0.));
#1363=DIRECTION('',(0.,-1.,0.));
#1364=DIRECTION('',(0.,1.,0.));
#1365=DIRECTION('',(0.,0.,1.));
#1366=DIRECTION('',(0.,0.,-1.));
#1367=DIRECTION('',(0.,0.,1.));
#1368=DIRECTION('',(-1.,0.,0.));
#1369=DIRECTION('',(0.,0.,1.));
#1370=DIRECTION('',(0.707106781186548,-0.707106781186547,0.));
#1371=DIRECTION('',(0.707106781186547,0.707106781186548,0.));
#1372=DIRECTION('',(0.,0.,-1.));
#1373=DIRECTION('',(0.31283963709622,0.31283963709622,0.896806959675832));
#1374=DIRECTION('',(-0.986393923832144,0.164398987305357,0.));
#1375=DIRECTION('',(-0.164398987305357,-0.986393923832144,0.));
#1376=DIRECTION('',(0.,0.,1.));
#1377=DIRECTION('',(0.164398987305357,0.986393923832144,0.));
#1378=DIRECTION('',(0.0995037190209989,0.597022314125995,0.79602975216799));
#1379=DIRECTION('',(0.986393923832144,0.164398987305357,0.));
#1380=DIRECTION('',(-0.164398987305357,0.986393923832144,0.));
#1381=DIRECTION('',(0.,0.,-1.));
#1382=DIRECTION('',(0.164398987305357,-0.986393923832144,0.));
#1383=DIRECTION('',(0.146230050027022,-0.877380300162134,-0.456968906334445));
#1384=DIRECTION('',(0.,0.,-1.));
#1385=DIRECTION('',(0.0995037190209989,-0.597022314125995,-0.79602975216799));
#1386=DIRECTION('',(-0.0995037190210011,0.597022314126009,0.79602975216798));
#1387=DIRECTION('',(0.707106781186548,-0.707106781186547,0.));
#1388=DIRECTION('',(0.707106781186547,0.707106781186548,0.));
#1389=DIRECTION('',(0.,0.,-1.));
#1390=DIRECTION('',(-0.986393923832144,0.164398987305357,0.));
#1391=DIRECTION('',(-0.164398987305357,-0.986393923832144,0.));
#1392=DIRECTION('',(0.146230050027022,0.877380300162134,0.456968906334445));
#1393=DIRECTION('',(0.164398987305357,0.986393923832144,0.));
#1394=DIRECTION('',(0.,0.,1.));
#1395=DIRECTION('',(0.0995037190210012,0.597022314126009,0.79602975216798));
#1396=DIRECTION('',(0.0995037190209989,0.597022314125995,0.79602975216799));
#1397=DIRECTION('',(0.,-1.,0.));
#1398=DIRECTION('',(1.,0.,0.));
#1399=DIRECTION('',(1.,0.,0.));
#1400=DIRECTION('',(-1.,0.,0.));
#1401=DIRECTION('',(0.,1.,0.));
#1402=DIRECTION('',(0.,0.,1.));
#1403=DIRECTION('',(0.,1.,0.));
#1404=DIRECTION('',(0.,0.,1.));
#1405=DIRECTION('',(1.,0.,0.));
#1406=DIRECTION('',(0.124034734589209,0.,0.992277876713668));
#1407=DIRECTION('',(-1.,0.,0.));
#1408=DIRECTION('',(0.124034734589209,0.,-0.992277876713668));
#1409=DIRECTION('',(0.,1.,0.));
#1410=DIRECTION('',(0.,0.,1.));
#1411=DIRECTION('',(0.,1.,0.));
#1412=DIRECTION('',(0.,0.,1.));
#1413=DIRECTION('',(0.,-0.939692620785909,0.342020143325668));
#1414=DIRECTION('',(1.,0.,0.));
#1415=DIRECTION('',(-1.,0.,0.));
#1416=DIRECTION('',(0.323615577118185,-0.323615577118185,-0.889126490715988));
#1417=DIRECTION('',(-1.,0.,0.));
#1418=DIRECTION('',(0.,0.,1.));
#1419=DIRECTION('',(0.,-0.436787479894542,0.899564726635818));
#1420=DIRECTION('',(0.,-0.939692620785909,0.342020143325668));
#1421=DIRECTION('',(0.,-0.00956413641601312,-0.999954262601353));
#1422=DIRECTION('',(0.,-0.939692620785909,0.342020143325668));
#1423=DIRECTION('',(0.,-0.342020143325668,-0.939692620785909));
#1424=DIRECTION('',(0.,0.944200181445777,-0.329372156318294));
#1425=DIRECTION('',(0.,0.329372156318294,0.944200181445777));
#1426=DIRECTION('',(-0.117211473644066,0.327101786913672,0.937691789152528));
#1427=DIRECTION('',(1.,0.,0.));
#1428=DIRECTION('',(-0.117211473644066,-0.327101786913672,-0.937691789152528));
#1429=DIRECTION('',(0.31283963709622,0.31283963709622,0.896806959675833));
#1430=DIRECTION('',(1.,0.,0.));
#1431=DIRECTION('',(-0.31283963709622,0.31283963709622,0.896806959675833));
#1432=DIRECTION('',(-0.992277876713668,0.,0.124034734589209));
#1433=DIRECTION('',(0.124034734589209,0.,0.992277876713668));
#1434=DIRECTION('',(-0.0995037190209976,-0.597022314126009,-0.79602975216798));
#1435=DIRECTION('',(0.,1.,0.));
#1436=DIRECTION('',(0.944200181445776,0.,-0.329372156318294));
#1437=DIRECTION('',(-0.329372156318294,0.,-0.944200181445777));
#1438=DIRECTION('',(0.,1.,0.));
#1439=DIRECTION('',(0.992277876713668,0.,0.124034734589209));
#1440=DIRECTION('',(0.124034734589209,0.,-0.992277876713668));
#1441=DIRECTION('',(-0.0995037190209976,0.597022314126009,0.79602975216798));
#1442=DIRECTION('',(0.,1.,0.));
#1443=DIRECTION('',(0.944200181445776,0.,0.329372156318294));
#1444=DIRECTION('',(0.329372156318294,0.,-0.944200181445777));
#1445=DIRECTION('',(0.,1.,0.));
#1446=DIRECTION('',(0.,0.,1.));
#1447=DIRECTION('',(1.,0.,0.));
#1448=DIRECTION('',(0.,0.799999999999989,-0.600000000000015));
#1449=DIRECTION('',(0.,0.600000000000015,0.799999999999989));
#1450=DIRECTION('',(0.,0.799999999999989,-0.600000000000015));
#1451=DIRECTION('',(0.,0.600000000000015,0.799999999999989));
#1452=DIRECTION('',(0.,1.,0.));
#1453=DIRECTION('',(0.,0.,1.));
#1454=DIRECTION('',(0.,1.,0.));
#1455=DIRECTION('',(0.,0.,1.));
#1456=DIRECTION('',(0.,1.,0.));
#1457=DIRECTION('',(-1.,0.,0.));
#1458=DIRECTION('',(0.,1.,0.));
#1459=DIRECTION('',(0.,0.,1.));
#1460=DIRECTION('',(0.,1.,0.));
#1461=DIRECTION('',(0.,0.,1.));
#1462=DIRECTION('',(0.,1.,0.));
#1463=DIRECTION('',(-1.,0.,0.));
#1464=DIRECTION('',(-1.,0.,0.));
#1465=DIRECTION('',(0.,0.,1.));
#1466=DIRECTION('',(0.,0.436787479894542,-0.899564726635818));
#1467=DIRECTION('',(0.,-0.342020143325668,-0.939692620785909));
#1468=DIRECTION('',(0.,-0.939692620785909,0.342020143325668));
#1469=DIRECTION('',(0.,0.00956413641601312,0.999954262601353));
#1470=DIRECTION('',(0.,0.939692620785909,-0.342020143325668));
#1471=DIRECTION('',(0.,0.342020143325668,0.939692620785909));
#1472=DIRECTION('',(0.,-0.939692620785909,0.342020143325668));
#1473=DIRECTION('',(-1.,0.,0.));
#1474=DIRECTION('',(0.,0.342020143325668,0.939692620785909));
#1475=DIRECTION('',(0.,-0.939692620785909,0.342020143325668));
#1476=DIRECTION('',(-1.,0.,0.));
#1477=DIRECTION('',(-1.,0.,0.));
#1478=DIRECTION('',(0.,-0.999954262601353,0.00956413641601312));
#1479=DIRECTION('',(0.,-0.00956413641601312,-0.999954262601353));
#1480=DIRECTION('',(0.,0.899564726635818,0.436787479894542));
#1481=DIRECTION('',(0.,-0.436787479894542,0.899564726635818));
#1482=DIRECTION('',(0.,-0.939692620785909,0.342020143325668));
#1483=DIRECTION('',(1.,0.,0.));
#1484=DIRECTION('',(-1.,1.65435557309562E-16,8.61643527653969E-17));
#1485=DIRECTION('',(-1.65435557309562E-16,-1.,0.));
#1486=DIRECTION('',(-1.86529406019011E-16,-0.88691408416698,-0.461934418836969));
#1487=DIRECTION('',(0.,-0.461934418836968,0.88691408416698));
#1488=DIRECTION('',(0.,-0.461934418836968,0.88691408416698));
#1489=DIRECTION('',(0.,-0.88691408416698,-0.461934418836968));
#1490=DIRECTION('',(0.,0.461934418836968,-0.88691408416698));
#1491=DIRECTION('',(0.,-0.461934418836968,0.88691408416698));
#1492=DIRECTION('',(1.,0.,0.));
#1493=DIRECTION('',(-1.,1.65435557309562E-16,8.6164352765397E-17));
#1494=DIRECTION('',(-1.65435557309562E-16,-1.,0.));
#1495=DIRECTION('',(0.,-0.461934418836968,0.88691408416698));
#1496=DIRECTION('',(-1.86529406019011E-16,-0.88691408416698,-0.461934418836969));
#1497=DIRECTION('',(0.,-0.88691408416698,-0.461934418836968));
#1498=DIRECTION('',(0.,0.461934418836968,-0.88691408416698));
#1499=DIRECTION('',(1.,0.,0.));
#1500=DIRECTION('',(0.,1.,0.));
#1501=DIRECTION('',(-1.,0.,0.));
#1502=DIRECTION('',(0.,1.,0.));
#1503=DIRECTION('',(0.,0.,1.));
#1504=DIRECTION('',(0.,1.,0.));
#1505=DIRECTION('',(-1.,0.,0.));
#1506=DIRECTION('',(0.,1.,0.));
#1507=DIRECTION('',(0.,0.,1.));
#1508=DIRECTION('',(0.,-0.461934418836969,0.88691408416698));
#1509=DIRECTION('',(0.,-0.88691408416698,-0.461934418836969));
#1510=DIRECTION('',(-1.,0.,0.));
#1511=DIRECTION('',(-0.66353810784447,0.663538107844469,0.345592764502328));
#1512=DIRECTION('',(1.,0.,0.));
#1513=DIRECTION('',(0.,0.,1.));
#1514=DIRECTION('',(1.,0.,0.));
#1515=DIRECTION('',(0.,0.,1.));
#1516=DIRECTION('',(1.,0.,0.));
#1517=DIRECTION('',(0.,1.,0.));
#1518=DIRECTION('',(0.,0.,1.));
#1519=DIRECTION('',(0.,1.,0.));
#1520=DIRECTION('',(0.,0.,1.));
#1521=DIRECTION('',(-0.707106781186547,-0.707106781186548,0.));
#1522=DIRECTION('',(0.707106781186548,-0.707106781186547,0.));
#1523=DIRECTION('',(0.,0.,-1.));
#1524=DIRECTION('',(-0.31283963709622,0.31283963709622,0.896806959675832));
#1525=DIRECTION('',(-0.123091490979333,0.123091490979333,0.984731927834662));
#1526=DIRECTION('',(0.,-1.,0.));
#1527=DIRECTION('',(0.,0.,-1.));
#1528=DIRECTION('',(0.,-1.,0.));
#1529=DIRECTION('',(0.,0.,-1.));
#1530=DIRECTION('',(0.,0.342020143325668,0.939692620785909));
#1531=DIRECTION('',(0.,-0.939692620785909,0.342020143325668));
#1532=DIRECTION('',(0.,-0.939692620785909,0.342020143325668));
#1533=DIRECTION('',(-1.,0.,0.));
#1534=DIRECTION('',(0.,-0.939692620785909,0.342020143325668));
#1535=DIRECTION('',(1.,0.,0.));
#1536=DIRECTION('',(0.,0.,-1.));
#1537=DIRECTION('',(0.,-0.939692620785909,0.342020143325668));
#1538=DIRECTION('',(0.,0.342020143325668,0.939692620785909));
#1539=DIRECTION('',(0.,0.342020143325668,0.939692620785909));
#1540=DIRECTION('',(0.,-0.939692620785909,0.342020143325668));
#1541=DIRECTION('',(0.,-0.939692620785909,0.342020143325668));
#1542=DIRECTION('',(-1.,0.,0.));
#1543=DIRECTION('',(1.,0.,0.));
#1544=DIRECTION('',(0.,0.,-1.));
#1545=DIRECTION('',(0.,0.342020143325668,0.939692620785909));
#1546=DIRECTION('',(0.,-0.939692620785909,0.342020143325668));
#1547=DIRECTION('',(1.,0.,0.));
#1548=DIRECTION('',(0.,-1.,0.));
#1549=DIRECTION('',(0.,0.,-1.));
#1550=DIRECTION('',(-1.20513724787051E-16,-0.944200181445777,0.329372156318295));
#1551=DIRECTION('',(0.,-0.329372156318295,-0.944200181445777));
#1552=DIRECTION('',(-1.,1.06581074734334E-16,5.32905373671673E-16));
#1553=DIRECTION('',(-3.95214180972926E-16,0.992277876713668,-0.124034734589208));
#1554=DIRECTION('',(0.,0.124034734589208,0.992277876713668));
#1555=DIRECTION('',(1.,4.77947788917965E-16,6.37263718557287E-16));
#1556=DIRECTION('',(2.61944182119774E-16,-0.8,0.6));
#1557=DIRECTION('',(0.,-0.6,-0.8));
#1558=CARTESIAN_POINT('',(0.,0.,0.));
#1559=CARTESIAN_POINT('',(0.02,-0.055,0.2));
#1560=CARTESIAN_POINT('',(-3.72292626940795E-19,-0.055,0.04));
#1561=CARTESIAN_POINT('',(-3.72292626940795E-19,-0.055,0.04608));
#1562=CARTESIAN_POINT('',(0.0379289321881345,-0.055,0.2));
#1563=CARTESIAN_POINT('',(0.0379289321881345,-0.055,0.163561060116564));
#1564=CARTESIAN_POINT('',(0.0379289321881345,-0.055,-0.0907566643450335));
#1565=CARTESIAN_POINT('',(0.0379289321881345,-0.055,-0.0907566643450335));
#1566=CARTESIAN_POINT('',(-0.0379289321881345,-0.055,-0.0907566643450335));
#1567=CARTESIAN_POINT('',(-0.0379289321881345,-0.055,0.2));
#1568=CARTESIAN_POINT('',(-0.0379289321881345,-0.055,0.163561060116564));
#1569=CARTESIAN_POINT('',(0.02,-0.055,0.163561060116564));
#1570=CARTESIAN_POINT('',(-0.1,-0.0402875142594408,-0.055635191582915));
#1571=CARTESIAN_POINT('',(-0.0633269597393524,-0.0396244289123944,-0.0537343469213819));
#1572=CARTESIAN_POINT('',(-0.0665440927183369,-0.0203216310384878,0.00160034031715025));
#1573=CARTESIAN_POINT('',(-0.0662249286064931,-0.0222366157095502,-0.00388928240656222));
#1574=CARTESIAN_POINT('',(-0.0662249286064931,-0.0222366157095502,-0.00388928240656222));
#1575=CARTESIAN_POINT('',(0.0662249286064931,-0.0222366157095504,-0.00388928240656241));
#1576=CARTESIAN_POINT('',(0.0769105145428099,0.0418768999083503,0.179902795698087));
#1577=CARTESIAN_POINT('',(0.0665440927183369,-0.0203216310384878,0.00160034031715026));
#1578=CARTESIAN_POINT('',(-0.1,-0.0203216310384878,0.00160034031715025));
#1579=CARTESIAN_POINT('',(0.,-0.0994772661241377,0.0442845801615853));
#1580=CARTESIAN_POINT('',(0.0394213207980146,-0.0535076113901199,0.170585168523425));
#1581=CARTESIAN_POINT('',(0.0388079696157657,-0.0541209625723688,0.1689));
#1582=CARTESIAN_POINT('',(0.0379289321881345,-0.055,0.166484864516728));
#1583=CARTESIAN_POINT('',(0.,-0.0541209625723688,0.1689));
#1584=CARTESIAN_POINT('',(-0.0388079696157657,-0.0541209625723688,0.1689));
#1585=CARTESIAN_POINT('',(-0.0394213207980146,-0.0535076113901199,0.170585168523425));
#1586=CARTESIAN_POINT('',(-0.0379289321881345,-0.055,0.166484864516728));
#1587=CARTESIAN_POINT('',(-0.073502,-0.055,0.166484864516728));
#1588=CARTESIAN_POINT('',(-0.036,-0.055,0.166484864516728));
#1589=CARTESIAN_POINT('',(-0.036,-0.0574942935309119,0.159631849363055));
#1590=CARTESIAN_POINT('',(-0.036,-0.06,0.152747477419454));
#1591=CARTESIAN_POINT('',(-0.036,-0.0574942935309119,0.159631849363055));
#1592=CARTESIAN_POINT('',(-0.036,-0.0676799618120616,0.131646955758542));
#1593=CARTESIAN_POINT('',(-0.064,-0.0676799618120616,0.131646955758542));
#1594=CARTESIAN_POINT('',(0.036,-0.0676799618120616,0.131646955758542));
#1595=CARTESIAN_POINT('',(0.036,-0.0574942935309119,0.159631849363055));
#1596=CARTESIAN_POINT('',(0.036,-0.06,0.152747477419454));
#1597=CARTESIAN_POINT('',(0.036,-0.0574942935309119,0.159631849363055));
#1598=CARTESIAN_POINT('',(0.036,-0.055,0.166484864516728));
#1599=CARTESIAN_POINT('',(0.073502,-0.055,0.166484864516728));
#1600=CARTESIAN_POINT('',(0.0341,-0.0608395589455482,0.15044080817426));
#1601=CARTESIAN_POINT('',(0.0341,-0.0672011336114056,0.132962525427642));
#1602=CARTESIAN_POINT('',(0.0341,-0.0544779842796908,0.167919090920878));
#1603=CARTESIAN_POINT('',(0.01705,-0.0672011336114056,0.132962525427642));
#1604=CARTESIAN_POINT('',(-0.0341,-0.0672011336114056,0.132962525427642));
#1605=CARTESIAN_POINT('',(-0.0341,-0.0608395589455482,0.15044080817426));
#1606=CARTESIAN_POINT('',(-0.0341,-0.0544779842796908,0.167919090920878));
#1607=CARTESIAN_POINT('',(0.,-0.0544779842796908,0.167919090920878));
#1608=CARTESIAN_POINT('',(0.0514644660940673,-0.0414644660940672,0.2));
#1609=CARTESIAN_POINT('',(0.0398721473882417,-0.0530567847998929,0.200002));
#1610=CARTESIAN_POINT('',(0.0398721473882417,-0.0530567847998929,0.172978733280167));
#1611=CARTESIAN_POINT('',(0.0398721473882417,-0.0530567847998929,0.1689));
#1612=CARTESIAN_POINT('',(0.0562762988616307,-0.0366526333265038,0.181522562172556));
#1613=CARTESIAN_POINT('',(0.0653314510320749,-0.0275974811560597,0.18623878726133));
#1614=CARTESIAN_POINT('',(0.0653314510320749,-0.0275974811560596,0.2));
#1615=CARTESIAN_POINT('',(0.0653314510320749,-0.0275974811560596,-0.011037103001908));
#1616=CARTESIAN_POINT('',(0.0664081609432757,-0.0265207712448589,-0.00242342371230212));
#1617=CARTESIAN_POINT('',(0.0651043716832769,-0.0278245605048577,-0.012853737792292));
#1618=CARTESIAN_POINT('',(0.1221520895436,0.029223157355466,0.150683053407302));
#1619=CARTESIAN_POINT('',(0.040262602190468,-0.0526663299976666,0.169972765752435));
#1620=CARTESIAN_POINT('',(-0.1,-0.0336903279058151,0.183065429579165));
#1621=CARTESIAN_POINT('',(0.,-0.0541209625723688,0.172424474023669));
#1622=CARTESIAN_POINT('',(0.0388079696157657,-0.0541209625723688,0.172424474023669));
#1623=CARTESIAN_POINT('',(-0.0388079696157657,-0.0541209625723688,0.172424474023669));
#1624=CARTESIAN_POINT('',(0.0562762988616307,-0.0366526333265038,0.181522562172556));
#1625=CARTESIAN_POINT('',(0.0379289321881345,-0.055,0.171966642030111));
#1626=CARTESIAN_POINT('',(0.02,-0.055,0.171966642030111));
#1627=CARTESIAN_POINT('',(-0.0379289321881345,-0.055,0.171966642030111));
#1628=CARTESIAN_POINT('',(-0.0562762988616307,-0.0366526333265038,0.181522562172556));
#1629=CARTESIAN_POINT('',(-0.0514644660940673,-0.0414644660940672,0.2));
#1630=CARTESIAN_POINT('',(-0.0388079696157657,-0.0541209625723688,0.200002));
#1631=CARTESIAN_POINT('',(-0.0379289321881345,-0.055,0.2));
#1632=CARTESIAN_POINT('',(-0.055,-0.045,0.2));
#1633=CARTESIAN_POINT('',(-0.07,-0.03,0.2));
#1634=CARTESIAN_POINT('',(-0.07,-0.03,0.190625));
#1635=CARTESIAN_POINT('',(-0.07,-0.03,-0.014));
#1636=CARTESIAN_POINT('',(-0.127103088299261,0.0271030882992605,0.149695519791214));
#1637=CARTESIAN_POINT('',(-0.04,-0.06,-0.1));
#1638=CARTESIAN_POINT('',(-0.04,-0.06,0.2));
#1639=CARTESIAN_POINT('',(-0.04,-0.06,0.175));
#1640=CARTESIAN_POINT('',(-0.0589413338429199,-0.0410586661570801,0.184865278043188));
#1641=CARTESIAN_POINT('',(-0.036,-0.035,0.16025));
#1642=CARTESIAN_POINT('',(-0.036,-0.06,0.16025));
#1643=CARTESIAN_POINT('',(-0.036,-0.06,0.1705));
#1644=CARTESIAN_POINT('',(-0.036,-0.055,0.2));
#1645=CARTESIAN_POINT('',(-0.036,-0.055,0.1705));
#1646=CARTESIAN_POINT('',(-0.036,-0.035,0.1705));
#1647=CARTESIAN_POINT('',(-0.0725,-0.015,0.2));
#1648=CARTESIAN_POINT('',(-0.0726044102906783,-0.0143735382559305,0.19876378215837));
#1649=CARTESIAN_POINT('',(-0.073,-0.012,0.2));
#1650=CARTESIAN_POINT('',(-0.0725,-0.015,0.2));
#1651=CARTESIAN_POINT('',(-0.0735,-0.009,0.2));
#1652=CARTESIAN_POINT('',(-0.0735,-0.009,0.2));
#1653=CARTESIAN_POINT('',(-0.0735,-0.009,0.014));
#1654=CARTESIAN_POINT('',(-0.0878663366336634,0.0771980198019803,0.128930693069307));
#1655=CARTESIAN_POINT('',(0.02,-0.06,0.2));
#1656=CARTESIAN_POINT('',(-3.72292626940795E-19,-0.06,0.04));
#1657=CARTESIAN_POINT('',(-3.72292626940795E-19,-0.06,0.03392));
#1658=CARTESIAN_POINT('',(0.04,-0.06,0.2));
#1659=CARTESIAN_POINT('',(0.04,-0.06,0.175));
#1660=CARTESIAN_POINT('',(0.04,-0.06,-0.1));
#1661=CARTESIAN_POINT('',(-0.1,-0.06,0.175));
#1662=CARTESIAN_POINT('',(0.02,-0.06,-0.1));
#1663=CARTESIAN_POINT('',(-0.018,-0.06,0.1705));
#1664=CARTESIAN_POINT('',(0.036,-0.06,0.1705));
#1665=CARTESIAN_POINT('',(0.036,-0.06,0.16025));
#1666=CARTESIAN_POINT('',(0.036,-0.06,0.2));
#1667=CARTESIAN_POINT('',(0.036,-0.06,0.149823673019291));
#1668=CARTESIAN_POINT('',(0.02,-0.06,0.149823673019291));
#1669=CARTESIAN_POINT('',(-0.036,-0.06,0.149823673019291));
#1670=CARTESIAN_POINT('',(-0.036,-0.06,0.2));
#1671=CARTESIAN_POINT('',(-6.93889390390723E-18,-0.06,0.149636029765734));
#1672=CARTESIAN_POINT('',(0.036,-0.06,0.149636029765734));
#1673=CARTESIAN_POINT('',(-0.036,-0.06,0.149636029765734));
#1674=CARTESIAN_POINT('',(0.036,-0.06,0.126350249135828));
#1675=CARTESIAN_POINT('',(0.036,-0.06,0.127820385429978));
#1676=CARTESIAN_POINT('',(-0.018,-0.06,0.127820385429978));
#1677=CARTESIAN_POINT('',(-0.036,-0.06,0.127820385429978));
#1678=CARTESIAN_POINT('',(-0.036,-0.06,0.126350249135828));
#1679=CARTESIAN_POINT('',(-0.1,-0.036,0.1875));
#1680=CARTESIAN_POINT('',(0.0589413338429199,-0.0410586661570801,0.184865278043188));
#1681=CARTESIAN_POINT('',(0.07,-0.03,0.190625));
#1682=CARTESIAN_POINT('',(0.0726044102906783,-0.0143735382559305,0.19876378215837));
#1683=CARTESIAN_POINT('',(0.073,-0.012,0.2));
#1684=CARTESIAN_POINT('',(-0.1,-0.012,0.2));
#1685=CARTESIAN_POINT('',(-0.0341,-0.036,0.1875));
#1686=CARTESIAN_POINT('',(-0.0341,-0.0195033980344942,0.196091980190367));
#1687=CARTESIAN_POINT('',(-0.0341,-0.0524966019655058,0.178908019809633));
#1688=CARTESIAN_POINT('',(-0.01705,-0.0195033980344942,0.196091980190367));
#1689=CARTESIAN_POINT('',(0.0341,-0.0195033980344942,0.196091980190367));
#1690=CARTESIAN_POINT('',(0.0341,-0.036,0.1875));
#1691=CARTESIAN_POINT('',(0.0341,-0.0524966019655059,0.178908019809633));
#1692=CARTESIAN_POINT('',(-0.01705,-0.0524966019655058,0.178908019809633));
#1693=CARTESIAN_POINT('',(-0.0709655156123758,-0.0168,0.1975));
#1694=CARTESIAN_POINT('',(-0.0698557597114127,-0.0155,0.198177083333334));
#1695=CARTESIAN_POINT('',(-0.0720752715133388,-0.0155,0.198177083333334));
#1696=CARTESIAN_POINT('',(-0.1,-0.0155,0.198177083333334));
#1697=CARTESIAN_POINT('',(0.0709655156123758,-0.0168,0.1975));
#1698=CARTESIAN_POINT('',(0.0720752715133388,-0.0155,0.198177083333334));
#1699=CARTESIAN_POINT('',(0.0698557597114127,-0.0155,0.198177083333334));
#1700=CARTESIAN_POINT('',(-0.1,-0.0155,0.198177083333334));
#1701=CARTESIAN_POINT('',(-0.018,-0.035,0.1705));
#1702=CARTESIAN_POINT('',(0.02,-0.055,0.1705));
#1703=CARTESIAN_POINT('',(0.036,-0.055,0.1705));
#1704=CARTESIAN_POINT('',(0.036,-0.035,0.1705));
#1705=CARTESIAN_POINT('',(0.02,-0.055,0.2));
#1706=CARTESIAN_POINT('',(0.0379289321881345,-0.055,0.2));
#1707=CARTESIAN_POINT('',(0.036,-0.055,0.2));
#1708=CARTESIAN_POINT('',(0.036,-0.035,0.16025));
#1709=CARTESIAN_POINT('',(0.055,-0.045,0.2));
#1710=CARTESIAN_POINT('',(0.07,-0.03,0.2));
#1711=CARTESIAN_POINT('',(0.07,-0.03,-0.014));
#1712=CARTESIAN_POINT('',(0.12710308829926,0.0271030882992606,0.149695519791214));
#1713=CARTESIAN_POINT('',(0.0725,-0.015,0.2));
#1714=CARTESIAN_POINT('',(0.0735,-0.009,0.2));
#1715=CARTESIAN_POINT('',(0.0735,-0.009,0.014));
#1716=CARTESIAN_POINT('',(0.0735,-0.009,0.2));
#1717=CARTESIAN_POINT('',(0.0725,-0.015,0.2));
#1718=CARTESIAN_POINT('',(0.0878663366336634,0.0771980198019803,0.128930693069307));
#1719=CARTESIAN_POINT('',(-0.0675680303808393,-0.0141780050634732,0.2));
#1720=CARTESIAN_POINT('',(-0.0684310312247515,-0.009,0.2));
#1721=CARTESIAN_POINT('',(-0.0684310312247515,-0.009,0.195));
#1722=CARTESIAN_POINT('',(-0.0684310312247515,-0.009,0.0166958483684668));
#1723=CARTESIAN_POINT('',(-0.0675680303808393,-0.0141780050634732,0.195));
#1724=CARTESIAN_POINT('',(-0.0681350391084495,-0.0107759526978121,0.195));
#1725=CARTESIAN_POINT('',(-0.0680205464031435,-0.0114629089296482,0.194642210295918));
#1726=CARTESIAN_POINT('',(-0.0653314510320749,-0.0275974811560597,0.18623878726133));
#1727=CARTESIAN_POINT('',(-0.0653314510320749,-0.0275974811560597,0.2));
#1728=CARTESIAN_POINT('',(-0.0653314510320749,-0.0275974811560597,-0.0110371030019081));
#1729=CARTESIAN_POINT('',(-0.0828666021203872,0.0776134253738146,0.12924410570459));
#1730=CARTESIAN_POINT('',(-0.0826340231240339,0.0762179513956948,0.130319783562722));
#1731=CARTESIAN_POINT('',(0.0514644660940673,-0.0414644660940672,0.2));
#1732=CARTESIAN_POINT('',(0.0388079696157657,-0.0541209625723688,0.200002));
#1733=CARTESIAN_POINT('',(0.0675680303808393,-0.0141780050634732,0.2));
#1734=CARTESIAN_POINT('',(0.0680205464031435,-0.0114629089296482,0.194642210295918));
#1735=CARTESIAN_POINT('',(0.0681350391084495,-0.0107759526978121,0.195));
#1736=CARTESIAN_POINT('',(0.0675680303808393,-0.0141780050634732,0.195));
#1737=CARTESIAN_POINT('',(0.0684310312247515,-0.009,0.195));
#1738=CARTESIAN_POINT('',(0.0684310312247515,-0.009,0.2));
#1739=CARTESIAN_POINT('',(0.0684310312247515,-0.009,0.0166958483684667));
#1740=CARTESIAN_POINT('',(0.0647258606669564,-0.0312310233467703,-0.0129455160938925));
#1741=CARTESIAN_POINT('',(0.0828666021203872,0.0776134253738146,0.12924410570459));
#1742=CARTESIAN_POINT('',(0.,-0.009,0.));
#1743=CARTESIAN_POINT('',(0.,-0.009,0.195));
#1744=CARTESIAN_POINT('',(-0.1,-0.009,0.0166958483684668));
#1745=CARTESIAN_POINT('',(0.0709655156123758,-0.009,0.0138797692697523));
#1746=CARTESIAN_POINT('',(0.0709655156123758,-0.009,0.0151797692697523));
#1747=CARTESIAN_POINT('',(-0.0709655156123758,-0.009,0.0138797692697523));
#1748=CARTESIAN_POINT('',(-0.0709655156123758,-0.009,0.0151797692697523));
#1749=CARTESIAN_POINT('',(0.,-0.009,0.2));
#1750=CARTESIAN_POINT('',(0.0725,-0.009,0.006));
#1751=CARTESIAN_POINT('',(0.0727953143793917,-0.009,0.00836251503513362));
#1752=CARTESIAN_POINT('',(-0.1,-0.009,0.00836251503513362));
#1753=CARTESIAN_POINT('',(-0.0727953143793917,-0.009,0.00836251503513362));
#1754=CARTESIAN_POINT('',(-0.0725,-0.009,0.006));
#1755=CARTESIAN_POINT('',(-0.0709655156123758,-0.009,0.1975));
#1756=CARTESIAN_POINT('',(-0.0709655156123758,-0.009,0.1988));
#1757=CARTESIAN_POINT('',(0.0709655156123758,-0.009,0.1975));
#1758=CARTESIAN_POINT('',(0.0709655156123758,-0.009,0.1988));
#1759=CARTESIAN_POINT('',(0.,-0.0985375735033518,0.0439425600182596));
#1760=CARTESIAN_POINT('',(0.,-0.0530567847998929,0.1689));
#1761=CARTESIAN_POINT('',(-0.0398721473882417,-0.0530567847998929,0.1689));
#1762=CARTESIAN_POINT('',(-0.040262602190468,-0.0526663299976666,0.169972765752435));
#1763=CARTESIAN_POINT('',(0.036,0.0339461515767129,0.126350249135828));
#1764=CARTESIAN_POINT('',(0.036,-0.0652058642881049,0.126551546743279));
#1765=CARTESIAN_POINT('',(0.036,-0.0633400082588196,0.122708812355995));
#1766=CARTESIAN_POINT('',(0.036,-0.0617001578190168,0.122111955607259));
#1767=CARTESIAN_POINT('',(0.036,-0.0600603073792141,0.121515098858522));
#1768=CARTESIAN_POINT('',(0.036,-0.0600301536896071,0.12466774214425));
#1769=CARTESIAN_POINT('',(0.036,0.0304404451076248,0.116718399772772));
#1770=CARTESIAN_POINT('',(0.036,-0.0600603073792141,0.149657979856674));
#1771=CARTESIAN_POINT('',(0.036,-0.056554600910126,0.15928982921973));
#1772=CARTESIAN_POINT('',(-0.1,-0.0402875142594408,-0.055635191582915));
#1773=CARTESIAN_POINT('',(-0.0693862817455843,-0.0274763123242351,-0.0189097460353253));
#1774=CARTESIAN_POINT('',(-0.07,-0.0257636102188891,-0.014));
#1775=CARTESIAN_POINT('',(-0.070002578771528,-0.0257564136471831,-0.0139793698277763));
#1776=CARTESIAN_POINT('',(-0.1,-0.0257564136471831,-0.0139793698277763));
#1777=CARTESIAN_POINT('',(0.070002578771528,-0.0257564136471831,-0.0139793698277763));
#1778=CARTESIAN_POINT('',(0.0693862817455843,-0.0274763123242351,-0.0189097460353253));
#1779=CARTESIAN_POINT('',(0.07,-0.025763610218889,-0.014));
#1780=CARTESIAN_POINT('',(0.0492026151801871,-0.046560995038702,-0.0736191698167971));
#1781=CARTESIAN_POINT('',(0.04,-0.055763610218889,-0.1));
#1782=CARTESIAN_POINT('',(-0.1,-0.055763610218889,-0.1));
#1783=CARTESIAN_POINT('',(-0.04,-0.055763610218889,-0.1));
#1784=CARTESIAN_POINT('',(-0.0492026151801871,-0.046560995038702,-0.0736191698167971));
#1785=CARTESIAN_POINT('',(0.0725,-0.1,0.006));
#1786=CARTESIAN_POINT('',(0.0671993199768128,-0.0425759664154746,-0.0364054401854974));
#1787=CARTESIAN_POINT('',(0.07,-0.1,-0.014));
#1788=CARTESIAN_POINT('',(0.055,-0.1,-0.057));
#1789=CARTESIAN_POINT('',(0.04,-0.1,-0.1));
#1790=CARTESIAN_POINT('',(-0.0725,-0.1,0.006));
#1791=CARTESIAN_POINT('',(-0.0671993199768128,-0.0425759664154746,-0.0364054401854974));
#1792=CARTESIAN_POINT('',(-0.07,-0.1,-0.014));
#1793=CARTESIAN_POINT('',(-0.055,-0.1,-0.057));
#1794=CARTESIAN_POINT('',(-0.04,-0.1,-0.1));
#1795=CARTESIAN_POINT('',(0.,-0.03,-0.1));
#1796=CARTESIAN_POINT('',(-0.1,-0.0173474717067525,-0.00276744724053594));
#1797=CARTESIAN_POINT('',(-0.1,-0.0213474717067524,0.000232552759464144));
#1798=CARTESIAN_POINT('',(0.0709655156123758,-0.0155,0.0138797692697523));
#1799=CARTESIAN_POINT('',(0.0709655156123758,-0.0155,0.0138797692697523));
#1800=CARTESIAN_POINT('',(0.0709655156123758,-0.0155,0.0151797692697523));
#1801=CARTESIAN_POINT('',(0.,-0.0155,0.104181257517567));
#1802=CARTESIAN_POINT('',(-0.0709655156123758,-0.0155,0.0138797692697523));
#1803=CARTESIAN_POINT('',(-0.0709655156123758,-0.0155,0.0138797692697523));
#1804=CARTESIAN_POINT('',(-0.0709655156123758,-0.0155,0.0151797692697523));
#1805=CARTESIAN_POINT('',(0.,-0.0155,0.104181257517567));
#1806=CARTESIAN_POINT('',(-0.036,0.0339461515767129,0.126350249135828));
#1807=CARTESIAN_POINT('',(-0.036,-0.0652058642881049,0.126551546743279));
#1808=CARTESIAN_POINT('',(-0.036,-0.0633400082588196,0.122708812355995));
#1809=CARTESIAN_POINT('',(-0.036,-0.056554600910126,0.15928982921973));
#1810=CARTESIAN_POINT('',(-0.036,-0.0600603073792141,0.149657979856674));
#1811=CARTESIAN_POINT('',(-0.036,0.0304404451076248,0.116718399772772));
#1812=CARTESIAN_POINT('',(-0.036,-0.0600301536896071,0.12466774214425));
#1813=CARTESIAN_POINT('',(-0.036,-0.0600603073792141,0.121515098858522));
#1814=CARTESIAN_POINT('',(-0.036,-0.0617001578190168,0.122111955607259));
#1815=CARTESIAN_POINT('',(-6.93889390390723E-18,0.0304404451076248,0.116718399772772));
#1816=CARTESIAN_POINT('',(-6.93889390390723E-18,-0.0600603073792141,0.149657979856674));
#1817=CARTESIAN_POINT('',(0.036002,-0.0617001578190168,0.122111955607259));
#1818=CARTESIAN_POINT('',(0.036002,-0.0600603073792141,0.121515098858522));
#1819=CARTESIAN_POINT('',(0.036002,-0.0633400082588196,0.122708812355995));
#1820=CARTESIAN_POINT('',(0.036002,-0.0600301536896071,0.12466774214425));
#1821=CARTESIAN_POINT('',(0.036002,-0.0652058642881049,0.126551546743279));
#1822=CARTESIAN_POINT('',(0.,-0.0985375735033518,0.0439425600182596));
#1823=CARTESIAN_POINT('',(0.0341,-0.0244516395290758,0.165327147895825));
#1824=CARTESIAN_POINT('',(0.0341,-0.0336903279058151,0.183065429579165));
#1825=CARTESIAN_POINT('',(0.0341,-0.0171937259403093,0.191657409769533));
#1826=CARTESIAN_POINT('',(0.0341,-0.050186929871321,0.174473449388797));
#1827=CARTESIAN_POINT('',(0.0341,-0.0409482414945816,0.156735167705458));
#1828=CARTESIAN_POINT('',(0.0341,-0.00795503756356995,0.173919128086194));
#1829=CARTESIAN_POINT('',(-0.01705,-0.0409482414945816,0.156735167705458));
#1830=CARTESIAN_POINT('',(-0.0341,-0.0409482414945816,0.156735167705458));
#1831=CARTESIAN_POINT('',(-0.0341,-0.0501869298713209,0.174473449388797));
#1832=CARTESIAN_POINT('',(-0.1,-0.0501869298713209,0.174473449388797));
#1833=CARTESIAN_POINT('',(-0.0341,-0.0244516395290758,0.165327147895825));
#1834=CARTESIAN_POINT('',(-0.0341,-0.00795503756356997,0.173919128086193));
#1835=CARTESIAN_POINT('',(-0.0341,-0.0171937259403093,0.191657409769533));
#1836=CARTESIAN_POINT('',(-0.0341,-0.0336903279058151,0.183065429579165));
#1837=CARTESIAN_POINT('',(-0.01705,-0.00795503756356997,0.173919128086193));
#1838=CARTESIAN_POINT('',(-0.1,-0.0171937259403093,0.191657409769533));
#1839=CARTESIAN_POINT('',(0.,-0.0155,0.104181257517567));
#1840=CARTESIAN_POINT('',(0.0709655156123758,-0.0155,0.1975));
#1841=CARTESIAN_POINT('',(0.,-0.0155,0.104181257517567));
#1842=CARTESIAN_POINT('',(-0.0709655156123758,-0.0155,0.1975));
#1843=CARTESIAN_POINT('',(-0.1,-0.0336903279058151,0.183065429579165));
#1844=CARTESIAN_POINT('',(0.,-0.0530567847998929,0.172978733280167));
#1845=CARTESIAN_POINT('',(-0.0398721473882417,-0.0530567847998929,0.172978733280167));
#1846=CARTESIAN_POINT('',(-0.0562762988616307,-0.0366526333265038,0.181522562172556));
#1847=CARTESIAN_POINT('',(0.,-0.0107759526978121,0.195));
#1848=CARTESIAN_POINT('',(0.,-0.03,0.2));
#1849=CARTESIAN_POINT('',(0.,-0.03,0.195));
#1850=CARTESIAN_POINT('',(0.0709655156123758,-0.0155,0.1975));
#1851=CARTESIAN_POINT('',(-0.0709655156123758,-0.0155,0.1975));
#1852=CARTESIAN_POINT('',(-0.0514644660940673,-0.0414644660940672,0.2));
#1853=CARTESIAN_POINT('',(-0.0398721473882417,-0.0530567847998929,0.200002));
#1854=CARTESIAN_POINT('',(-0.1221520895436,0.029223157355466,0.150683053407302));
#1855=CARTESIAN_POINT('',(-0.0651043716832769,-0.0278245605048576,-0.0128537377922919));
#1856=CARTESIAN_POINT('',(-0.090491494276609,-0.00243743791152555,0.190243242954365));
#1857=CARTESIAN_POINT('',(0.,-0.0530567847998929,0.200002));
#1858=CARTESIAN_POINT('',(0.,-0.0541209625723688,0.200002));
#1859=CARTESIAN_POINT('',(0.01705,-0.0665433487768555,0.132723111327314));
#1860=CARTESIAN_POINT('',(0.0341,-0.0665433487768555,0.132723111327314));
#1861=CARTESIAN_POINT('',(0.0341,-0.0665433487768555,0.132723111327314));
#1862=CARTESIAN_POINT('',(0.01705,-0.0665433487768555,0.132723111327314));
#1863=CARTESIAN_POINT('',(-0.0341,-0.0665433487768555,0.132723111327314));
#1864=CARTESIAN_POINT('',(-0.0341,-0.0665433487768555,0.132723111327314));
#1865=CARTESIAN_POINT('',(0.0341,-0.0601817741109981,0.150201394073932));
#1866=CARTESIAN_POINT('',(0.0341,-0.0538201994451406,0.16767967682055));
#1867=CARTESIAN_POINT('',(0.0341,-0.0538201994451406,0.16767967682055));
#1868=CARTESIAN_POINT('',(0.0341,-0.0601817741109981,0.150201394073932));
#1869=CARTESIAN_POINT('',(0.,-0.0538201994451406,0.16767967682055));
#1870=CARTESIAN_POINT('',(-0.0341,-0.0538201994451406,0.16767967682055));
#1871=CARTESIAN_POINT('',(-0.0341,-0.0538201994451406,0.16767967682055));
#1872=CARTESIAN_POINT('',(0.,-0.0538201994451406,0.16767967682055));
#1873=CARTESIAN_POINT('',(-0.0341,-0.0601817741109981,0.150201394073932));
#1874=CARTESIAN_POINT('',(-0.0341,-0.0601817741109981,0.150201394073932));
#1875=CARTESIAN_POINT('',(6.93889390390723E-18,-0.060242677357665,0.150034063778943));
#1876=CARTESIAN_POINT('',(-3.72292626940795E-19,-0.035,0.04));
#1877=CARTESIAN_POINT('',(-2.65591662600574E-18,-0.0208085590633816,0.00725879967327265));
#1878=CARTESIAN_POINT('',(0.0651043716832769,-0.0278245605048577,-0.012853737792292));
#1879=CARTESIAN_POINT('',(1.02816494164235E-17,-0.0258144918457315,0.00322681148071644));
#1880=CARTESIAN_POINT('',(-0.0653314510320749,-0.0275974811560597,-0.0110371030019081));
#1881=CARTESIAN_POINT('',(4.04853675270801E-18,-0.0123645784989622,0.00927343387422172));
#1882=MECHANICAL_DESIGN_GEOMETRIC_PRESENTATION_REPRESENTATION('',(#1175),
#1883);
#1883=(
GEOMETRIC_REPRESENTATION_CONTEXT(3)
GLOBAL_UNCERTAINTY_ASSIGNED_CONTEXT((#1884))
GLOBAL_UNIT_ASSIGNED_CONTEXT((#1887,#1886,#1885))
REPRESENTATION_CONTEXT('Front Cover','TOP_LEVEL_ASSEMBLY_PART')
);
#1884=UNCERTAINTY_MEASURE_WITH_UNIT(LENGTH_MEASURE(1.E-8),#1887,
'DISTANCE_ACCURACY_VALUE','Maximum Tolerance applied to model');
#1885=(
NAMED_UNIT(*)
SI_UNIT($,.STERADIAN.)
SOLID_ANGLE_UNIT()
);
#1886=(
NAMED_UNIT(*)
PLANE_ANGLE_UNIT()
SI_UNIT($,.RADIAN.)
);
#1887=(
LENGTH_UNIT()
NAMED_UNIT(*)
SI_UNIT($,.METRE.)
);
#1888=PRODUCT_DEFINITION_SHAPE('','',#1889);
#1889=PRODUCT_DEFINITION('','',#1891,#1890);
#1890=PRODUCT_DEFINITION_CONTEXT('',#1897,'design');
#1891=PRODUCT_DEFINITION_FORMATION_WITH_SPECIFIED_SOURCE('','',#1893,
 .NOT_KNOWN.);
#1892=PRODUCT_RELATED_PRODUCT_CATEGORY('','',(#1893));
#1893=PRODUCT('Front Cover','Front Cover','Front Cover',(#1895));
#1894=PRODUCT_CATEGORY('','');
#1895=PRODUCT_CONTEXT('',#1897,'mechanical');
#1896=APPLICATION_PROTOCOL_DEFINITION('international standard',
'ap242_managed_model_based_3d_engineering',2020,#1897);
#1897=APPLICATION_CONTEXT('managed model based 3d engineering');
ENDSEC;
END-ISO-10303-21;
